<?xml version="1.0" encoding="utf-8"?>
<!-- Generator: Adobe Illustrator 27.5.0, SVG Export Plug-In . SVG Version: 6.00 Build 0)  -->
<svg version="1.1" id="Layer_1" xmlns="http://www.w3.org/2000/svg" xmlns:xlink="http://www.w3.org/1999/xlink" x="0px" y="0px"
	 viewBox="0 0 296.897 241.991" style="enable-background:new 0 0 296.897 241.991;" xml:space="preserve">
<g>
	<g>
		<g>
			<g>
				<path style="fill:#9D4428;" d="M14.581,154.147l-8.936,5.189c0,0,43.674,19.459,45.403,20.035
					c1.73,0.577-0.432-39.205-0.432-39.205L14.581,154.147z"/>
				<path style="fill:#4A1600;" d="M51.084,179.54c-0.029,0-0.059-0.005-0.089-0.015c-1.717-0.572-43.634-19.246-45.418-20.041
					c-0.056-0.025-0.093-0.079-0.096-0.14c-0.003-0.061,0.028-0.119,0.081-0.15l8.937-5.189c0.007-0.004,0.015-0.008,0.023-0.011
					l36.034-13.982c0.048-0.019,0.104-0.013,0.147,0.015c0.044,0.028,0.072,0.076,0.074,0.128
					c0.212,3.901,2.027,38.142,0.479,39.323C51.204,179.52,51.145,179.54,51.084,179.54z M6.002,159.317
					c3.798,1.692,43.1,19.193,45.072,19.891c0.576-0.583,0.88-11.319-0.609-38.809l-35.813,13.896L6.002,159.317z"/>
			</g>
			<path style="fill:#9D4428;" d="M12.928,160.732c2.107-0.007,4.215-0.036,6.32-0.133c1.943-0.09,3.93-0.125,5.765,0.614
				c1.825,0.734,3.334,2.049,4.833,3.287c1.637,1.352,3.269,2.707,4.892,4.077c1.667,1.408,3.349,2.803,5.11,4.093
				c1.777,1.301,3.638,2.444,5.6,3.445c1.938,0.988,3.932,1.86,5.93,2.718c1.082-4.722-0.763-38.666-0.763-38.666l-36.034,13.981
				l-8.936,5.189c0,0,0.878,0.391,2.389,1.064C9.643,160.682,11.289,160.738,12.928,160.732z"/>
			<path style="fill:#9D4428;" d="M19.726,158.451c1.426-0.263,2.845-0.562,4.257-0.893c1.321-0.309,2.662-0.605,3.953-1.024
				c1.128-0.366,2.238-0.817,3.412-1.022c1.015-0.177,2.033-0.161,2.88,0.488c0.82,0.627,1.413,1.557,2.047,2.359
				c0.798,1.01,1.577,2.036,2.38,3.042c1.642,2.056,3.427,3.918,5.451,5.601c2.038,1.695,4.205,3.232,6.451,4.639
				c0.384,0.24,0.773,0.47,1.161,0.701c0.034-11.282-1.102-32.178-1.102-32.178l-36.034,13.981l-8.936,5.189
				c0,0,0.119,0.053,0.342,0.152C10.542,160.154,15.245,159.276,19.726,158.451z"/>
			<g>
				<path style="fill:#A00000;" d="M11.66,161.84c8.254-1.784,26.945-6.506,41.286-15.197l-0.338-0.557
					c-14.745,8.936-34.135,13.656-41.88,15.288C11.038,161.53,11.349,161.685,11.66,161.84z"/>
				<path style="fill:#A00000;" d="M18.285,164.952c0.325,0.117,0.647,0.244,0.97,0.366c9.159-2.136,25.648-6.747,38.591-14.592
					l-0.338-0.557c-13.328,8.077-30.451,12.71-39.339,14.73C18.208,164.917,18.247,164.935,18.285,164.952z"/>
				<path style="fill:#A00000;" d="M27.121,168.684c9.465-2.375,23.98-6.815,35.626-13.874l-0.338-0.557
					c-11.909,7.217-26.847,11.684-36.234,13.995C26.491,168.393,26.806,168.538,27.121,168.684z"/>
				<path style="fill:#A00000;" d="M34.37,171.969c9.349-2.517,22.108-6.742,32.557-13.075l-0.338-0.557
					c-10.687,6.477-23.813,10.738-33.178,13.215C33.731,171.691,34.049,171.833,34.37,171.969z"/>
			</g>
		</g>
		<g>
			<g>
				<path style="fill:#9D4428;" d="M282.197,154.147l8.937,5.189c0,0-43.674,19.459-45.403,20.035
					c-1.73,0.577,0.432-39.205,0.432-39.205L282.197,154.147z"/>
				<path style="fill:#4A1600;" d="M245.693,179.54c-0.061,0-0.12-0.021-0.172-0.061c-1.548-1.18,0.267-35.422,0.479-39.323
					c0.003-0.052,0.031-0.1,0.075-0.128c0.044-0.029,0.099-0.034,0.147-0.015l36.035,13.982c0.008,0.003,0.016,0.007,0.023,0.011
					l8.937,5.189c0.053,0.031,0.084,0.089,0.081,0.15c-0.003,0.061-0.041,0.115-0.096,0.14
					c-1.783,0.795-43.701,19.468-45.418,20.041C245.752,179.536,245.722,179.54,245.693,179.54z M246.313,140.399
					c-1.489,27.49-1.185,38.226-0.609,38.809c1.972-0.698,41.274-18.199,45.073-19.891l-8.65-5.023L246.313,140.399z"/>
			</g>
			<path style="fill:#9D4428;" d="M283.85,160.732c-2.107-0.007-4.215-0.036-6.32-0.133c-1.943-0.09-3.93-0.125-5.765,0.614
				c-1.824,0.734-3.334,2.049-4.833,3.287c-1.637,1.352-3.269,2.707-4.892,4.077c-1.668,1.408-3.349,2.803-5.11,4.093
				c-1.777,1.301-3.638,2.444-5.6,3.445c-1.938,0.988-3.932,1.86-5.93,2.718c-1.082-4.722,0.763-38.666,0.763-38.666l36.034,13.981
				l8.937,5.189c0,0-0.879,0.391-2.389,1.064C287.134,160.682,285.489,160.738,283.85,160.732z"/>
			<path style="fill:#9D4428;" d="M277.051,158.451c-1.426-0.263-2.845-0.562-4.257-0.893c-1.321-0.309-2.661-0.605-3.953-1.024
				c-1.128-0.366-2.238-0.817-3.412-1.022c-1.015-0.177-2.033-0.161-2.88,0.488c-0.82,0.627-1.413,1.557-2.047,2.359
				c-0.798,1.01-1.577,2.036-2.38,3.042c-1.642,2.056-3.427,3.918-5.451,5.601c-2.038,1.695-4.205,3.232-6.451,4.639
				c-0.384,0.24-0.773,0.47-1.161,0.701c-0.033-11.282,1.102-32.178,1.102-32.178l36.034,13.981l8.937,5.189
				c0,0-0.119,0.053-0.342,0.152C286.236,160.154,281.532,159.276,277.051,158.451z"/>
			<g>
				<path style="fill:#A00000;" d="M285.117,161.84c-8.254-1.784-26.945-6.506-41.286-15.197l0.338-0.557
					c14.745,8.936,34.135,13.656,41.88,15.288C285.739,161.53,285.428,161.685,285.117,161.84z"/>
				<path style="fill:#A00000;" d="M278.492,164.952c-0.325,0.117-0.647,0.244-0.97,0.366c-9.159-2.136-25.648-6.747-38.591-14.592
					l0.338-0.557c13.328,8.077,30.451,12.71,39.339,14.73C278.569,164.917,278.531,164.935,278.492,164.952z"/>
				<path style="fill:#A00000;" d="M269.656,168.684c-9.465-2.375-23.98-6.815-35.626-13.874l0.338-0.557
					c11.909,7.217,26.847,11.684,36.234,13.995C270.287,168.393,269.972,168.538,269.656,168.684z"/>
				<path style="fill:#A00000;" d="M262.408,171.969c-9.349-2.517-22.108-6.742-32.557-13.075l0.338-0.557
					c10.687,6.477,23.813,10.738,33.178,13.215C263.047,171.691,262.728,171.833,262.408,171.969z"/>
			</g>
		</g>
		<g>
			<g>
				<polygon style="fill:#DB5446;" points="230.499,128.13 200.338,51.269 149.207,13.083 149.205,13 149.151,13.041 149.097,13 
					149.095,13.083 97.964,51.269 67.803,128.13 41.21,146.94 51.336,235.873 54.651,238.035 243.651,238.035 246.967,235.873 
					257.092,146.94 				"/>
				<path style="fill:#813027;" d="M243.651,238.198h-189c-0.032,0-0.063-0.009-0.089-0.026l-3.315-2.162
					c-0.041-0.027-0.067-0.07-0.073-0.118l-10.126-88.933c-0.007-0.059,0.019-0.117,0.068-0.152l26.554-18.782L97.813,51.21
					c0.011-0.028,0.03-0.053,0.054-0.071L148.934,13v-0.003c0.001-0.061,0.037-0.116,0.092-0.143
					c0.04-0.019,0.085-0.022,0.125-0.007c0.041-0.014,0.086-0.012,0.126,0.007c0.055,0.027,0.09,0.082,0.092,0.143V13l51.067,38.139
					c0.024,0.018,0.043,0.043,0.054,0.071l30.143,76.816l26.553,18.782c0.049,0.034,0.075,0.092,0.068,0.152l-10.126,88.933
					c-0.005,0.048-0.032,0.092-0.073,0.118l-3.315,2.162C243.714,238.189,243.683,238.198,243.651,238.198z M54.699,237.872h188.904
					l3.21-2.094l10.106-88.761l-26.515-18.754c-0.026-0.018-0.046-0.044-0.058-0.074l-30.144-76.818l-51.052-38.128L98.099,51.372
					L67.955,128.19c-0.012,0.03-0.032,0.055-0.058,0.074l-26.515,18.754l10.106,88.761L54.699,237.872z"/>
			</g>
			<path style="opacity:0.45;fill:#9A3C32;" d="M230.499,128.13l-30.161-76.861l-51.131-38.186L149.205,13l-0.054,0.04L149.097,13
				l-0.002,0.082L97.964,51.269L67.803,128.13L41.21,146.94l10.126,88.933l3.315,2.162h189l3.315-2.162l10.126-88.933
				L230.499,128.13z M221.13,229.675H62.146l-10.954-79.852c0,0,22.918-10.378,29.26-22.197
				c6.342-11.819,23.927-71.925,23.927-71.925s31.422-10.378,44.106-26.089c0,0,16.143,18.017,44.394,25.512
				c0,0,7.063,76.393,31.422,92.392L221.13,229.675z"/>
			<g>
				<polygon style="fill:#A00000;" points="54.475,137.679 57.288,237.927 57.94,237.927 55.114,137.227 				"/>
				<polygon style="fill:#A00000;" points="65.121,130.149 67.79,237.927 68.442,237.927 65.762,129.696 				"/>
				<polygon style="fill:#A00000;" points="75.529,109.162 78.292,237.927 78.944,237.927 76.147,107.587 				"/>
				<polygon style="fill:#A00000;" points="85.973,82.547 88.794,237.927 89.446,237.927 86.596,80.959 				"/>
				<polygon style="fill:#A00000;" points="96.586,55.5 99.296,237.927 99.948,237.927 97.214,53.9 				"/>
				<polygon style="fill:#A00000;" points="107.56,44.237 109.798,237.927 110.45,237.927 108.206,43.754 				"/>
				<polygon style="fill:#A00000;" points="118.633,35.967 120.3,237.927 120.952,237.927 119.281,35.483 				"/>
				<polygon style="fill:#A00000;" points="129.761,27.656 130.802,237.927 131.454,237.927 130.41,27.171 				"/>
				<polygon style="fill:#A00000;" points="140.943,19.305 141.304,237.927 141.956,237.927 141.594,18.819 				"/>
				
					<rect x="41.095" y="126.381" transform="matrix(0.0017 -1 1 0.0017 25.357 278.8131)" style="fill:#A00000;" width="222.441" height="0.652"/>
				<polygon style="fill:#A00000;" points="163.371,23.311 162.308,237.927 162.96,237.927 164.02,23.795 				"/>
				<polygon style="fill:#A00000;" points="174.513,31.632 172.81,237.927 173.462,237.927 175.161,32.115 				"/>
				<polygon style="fill:#A00000;" points="185.6,39.912 183.312,237.927 183.964,237.927 186.246,40.395 				"/>
				<polygon style="fill:#A00000;" points="196.633,48.152 193.814,237.927 194.466,237.927 197.278,48.633 				"/>
				<polygon style="fill:#A00000;" points="207.396,68.321 204.316,237.927 204.968,237.927 208.019,69.908 				"/>
				<polygon style="fill:#A00000;" points="217.884,95.049 214.818,237.927 215.47,237.927 218.502,96.624 				"/>
				<polygon style="fill:#A00000;" points="228.206,121.354 225.32,237.927 225.972,237.927 228.82,122.917 				"/>
				<polygon style="fill:#A00000;" points="238.749,133.628 235.822,237.927 236.474,237.927 239.388,134.081 				"/>
			</g>
			<g>
				<polygon style="fill:#A00000;" points="54.151,137.787 56.964,238.035 57.616,238.035 54.79,137.335 				"/>
				<polygon style="fill:#A00000;" points="64.797,130.257 67.466,238.035 68.118,238.035 65.438,129.804 				"/>
				<polygon style="fill:#A00000;" points="75.204,109.27 77.968,238.035 78.62,238.035 75.823,107.695 				"/>
				<polygon style="fill:#A00000;" points="85.648,82.655 88.47,238.035 89.122,238.035 86.271,81.067 				"/>
				<polygon style="fill:#A00000;" points="96.261,55.609 98.972,238.035 99.624,238.035 96.889,54.008 				"/>
				<polygon style="fill:#A00000;" points="107.235,44.345 109.474,238.035 110.126,238.035 107.882,43.862 				"/>
				<polygon style="fill:#A00000;" points="118.309,36.075 119.976,238.035 120.628,238.035 118.957,35.591 				"/>
				<polygon style="fill:#A00000;" points="129.437,27.764 130.478,238.035 131.13,238.035 130.086,27.279 				"/>
				<polygon style="fill:#A00000;" points="140.619,19.413 140.98,238.035 141.632,238.035 141.27,18.927 				"/>
				
					<rect x="40.771" y="126.489" transform="matrix(0.0017 -1 1 0.0017 24.9252 278.5968)" style="fill:#A00000;" width="222.441" height="0.652"/>
				<polygon style="fill:#A00000;" points="163.047,23.419 161.984,238.035 162.635,238.035 163.696,23.903 				"/>
				<polygon style="fill:#A00000;" points="174.189,31.74 172.486,238.035 173.137,238.035 174.836,32.223 				"/>
				<polygon style="fill:#A00000;" points="185.276,40.02 182.988,238.035 183.639,238.035 185.922,40.503 				"/>
				<polygon style="fill:#A00000;" points="196.309,48.26 193.49,238.035 194.141,238.035 196.954,48.742 				"/>
				<polygon style="fill:#A00000;" points="207.072,68.429 203.992,238.035 204.643,238.035 207.695,70.016 				"/>
				<polygon style="fill:#A00000;" points="217.56,95.157 214.493,238.035 215.145,238.035 218.178,96.732 				"/>
				<polygon style="fill:#A00000;" points="227.882,121.462 224.995,238.035 225.648,238.035 228.495,123.025 				"/>
				<polygon style="fill:#A00000;" points="238.424,133.736 235.497,238.035 236.15,238.035 239.064,134.189 				"/>
			</g>
			<path style="opacity:0.45;fill:#9A3C32;" d="M114.568,82.743c-0.044-0.028-0.092-0.034-0.14-0.031
				c-0.001-0.041-0.004-0.081-0.004-0.122c0-0.071-0.063-0.103-0.128-0.09c-0.073,0.015-0.132,0.074-0.143,0.147
				c-0.012,0.079-0.022,0.158-0.029,0.238c-0.033,0.049-0.05,0.111-0.025,0.165c0.004,0.008,0.01,0.013,0.015,0.02
				c-0.002,0.044-0.006,0.088-0.005,0.132c0.002,0.097,0.009,0.193,0.021,0.289c0.006,0.045,0.013,0.089,0.021,0.133
				c0.001,0.012,0.002,0.013,0.003,0.002c0.001,0.023,0.003,0.045,0.005,0.068c0.005,0.025,0.015,0.05,0.023,0.074
				c0.034,0.103,0.144,0.12,0.236,0.09c0.103-0.033,0.197-0.122,0.208-0.234c0.019-0.203,0.064-0.41,0.054-0.615
				C114.674,82.909,114.662,82.803,114.568,82.743z"/>
			<path style="opacity:0.45;fill:#9A3C32;" d="M115.503,89.248l-0.001-0.009c0.002-0.029-0.011-0.058-0.035-0.075
				c-0.018-0.013-0.044-0.016-0.067-0.015c-0.009-0.001-0.018-0.006-0.027-0.004c-0.014,0.003-0.027,0.013-0.04,0.022
				c-0.004,0.002-0.008,0.004-0.012,0.006c-0.001,0.001-0.002,0.001-0.003,0.002c-0.014,0.008-0.027,0.018-0.038,0.029
				c-0.001,0-0.001,0-0.002,0.001c-0.008,0.009-0.017,0.021-0.025,0.034c-0.001,0.002-0.003,0.003-0.004,0.005
				c-0.009,0.016-0.016,0.034-0.015,0.051c-0.002,0.023-0.002,0.046,0.006,0.068c0.006,0.074,0.011,0.149,0.02,0.223
				c0.001,0.012,0.003,0.024,0.004,0.035c0,0.002,0.003,0.004,0.003,0.006c0.002,0.005,0.005,0.01,0.008,0.014
				c0.005,0.006,0.008,0.01,0.014,0.015c0.002,0.001,0.005,0.003,0.007,0.004c0.005,0.003,0.009,0.007,0.014,0.008
				c0.002,0.001,0.004-0.001,0.007-0.001c0.014,0.004,0.03,0.005,0.044,0.002c0.005-0.001,0.009-0.006,0.014-0.007
				c0.004-0.001,0.01,0.001,0.014-0.001c0.008-0.004,0.013-0.012,0.02-0.017c0.013-0.008,0.023-0.016,0.033-0.028
				c0.004-0.005,0.011-0.007,0.014-0.012c0.005-0.008,0.003-0.018,0.005-0.026c0.003-0.008,0.01-0.013,0.011-0.022
				c0.01-0.091,0.018-0.181,0.025-0.272c0.001-0.009,0.001-0.017,0.002-0.026C115.501,89.254,115.503,89.251,115.503,89.248z"/>
			<path style="opacity:0.45;fill:#9A3C32;" d="M114.473,112.343c-0.016-0.145-0.217-0.155-0.318-0.122
				c-0.134,0.044-0.271,0.165-0.28,0.316c-0.013,0.221-0.018,0.443,0.023,0.66c-0.072,0.483,0.044,0.984,0.067,1.474
				c0.014,0.285,0.402,0.142,0.464-0.046C114.674,113.885,114.558,113.099,114.473,112.343z"/>
			<path style="opacity:0.45;fill:#9A3C32;" d="M103.976,124.164c-0.039-0.027-0.097-0.032-0.145-0.025
				c-0.014-0.018-0.033-0.034-0.052-0.038c-0.033-0.008-0.065-0.005-0.097,0.005c-0.069,0.022-0.145,0.088-0.147,0.166
				c-0.006,0.205-0.051,0.415,0.017,0.614c-0.001,0.012-0.001,0.024,0.003,0.042c0.005,0.022,0.015,0.042,0.025,0.063
				c0.011,0.011,0.022,0.022,0.034,0.033c0.015,0.007,0.029,0.014,0.044,0.02c0.044,0.013,0.092,0.007,0.135-0.007
				c0.041-0.013,0.076-0.034,0.109-0.062c0.035-0.03,0.075-0.073,0.085-0.119c0.023-0.099,0.038-0.198,0.046-0.299
				c0.007-0.088,0.006-0.174,0.004-0.262C104.037,124.244,104.022,124.196,103.976,124.164z"/>
			<path style="opacity:0.45;fill:#9A3C32;" d="M105.813,85.298c-0.084-0.052-0.181-0.028-0.261,0.022
				c0.001-0.009,0.001-0.017,0.002-0.026c0.009-0.069-0.067-0.099-0.123-0.087c-0.069,0.014-0.129,0.072-0.138,0.142
				c-0.023,0.178-0.027,0.359-0.018,0.538c0.004,0.091,0.013,0.183,0.028,0.273c0.013,0.08,0.037,0.159,0.049,0.24
				c-0.01,0.074,0.043,0.142,0.122,0.141c0.101-0.001,0.197-0.069,0.233-0.163c0.106-0.284,0.173-0.574,0.166-0.879
				C105.872,85.427,105.887,85.343,105.813,85.298z"/>
			<path style="opacity:0.45;fill:#9A3C32;" d="M93.656,121.435c-0.064-0.15-0.223-0.128-0.338-0.046
				c-0.007-0.036-0.016-0.071-0.023-0.107c-0.02-0.1-0.185-0.009-0.174,0.076c0.026,0.205,0.053,0.41,0.076,0.615
				c0.002,0.045,0.005,0.09,0.007,0.135c0.01,0.171,0.027,0.342,0.043,0.513c0,0.001,0,0.002,0,0.003c0,0,0,0.001,0,0.001
				c0.001,0.013,0.002,0.026,0.003,0.038c0.002-0.001,0.003-0.001,0.005-0.002c0.02,0.066,0.089,0.097,0.161,0.083
				c0.09-0.019,0.183-0.099,0.19-0.196c0.013-0.182,0.028-0.364,0.037-0.546c0.004-0.089,0.009-0.177,0.013-0.265
				c0.002-0.042,0.005-0.084,0.007-0.126C93.666,121.553,93.678,121.488,93.656,121.435z"/>
			<path style="opacity:0.45;fill:#9A3C32;" d="M84.388,127.195c-0.008-0.03-0.016-0.059-0.025-0.089
				c0.002-0.033-0.002-0.066-0.021-0.099c-0.014-0.025-0.026-0.042-0.047-0.063c-0.006-0.006-0.014-0.008-0.021-0.013
				c-0.004-0.116-0.001-0.232,0.012-0.348c0.009-0.082-0.08-0.122-0.15-0.106c-0.086,0.021-0.154,0.085-0.168,0.173
				c-0.018,0.108-0.026,0.216-0.03,0.325c-0.065,0.053-0.114,0.126-0.12,0.211c-0.004,0.056,0.015,0.096,0.039,0.145
				c0.01,0.021,0.02,0.041,0.03,0.061c0.003,0.006,0.005,0.012,0.008,0.018c0.008,0.021,0.017,0.041,0.024,0.062
				c0.035,0.095,0.06,0.195,0.073,0.296c0.023,0.105,0.151,0.117,0.234,0.09c0.099-0.032,0.201-0.122,0.206-0.233
				C84.441,127.481,84.424,127.335,84.388,127.195z"/>
			<path style="opacity:0.45;fill:#9A3C32;" d="M84.497,137.401c-0.152,0-0.294,0.27-0.092,0.27
				C84.557,137.67,84.699,137.401,84.497,137.401z"/>
			<path style="opacity:0.45;fill:#9A3C32;" d="M93.757,136.975c-0.069-0.054-0.17-0.043-0.246-0.018
				c-0.085,0.028-0.154,0.076-0.209,0.146c-0.027,0.03-0.046,0.064-0.059,0.102c-0.016,0.045-0.019,0.09-0.009,0.136
				c0.003,0.027,0.005,0.055,0.007,0.082c0.007,0.08,0.011,0.16,0.013,0.24c-0.001,0.03-0.003,0.061-0.004,0.091
				c-0.001,0.068-0.006,0.136-0.011,0.204c-0.001,0.018-0.003,0.035-0.004,0.052c-0.002,0.012-0.004,0.023-0.006,0.035
				c-0.001,0.003,0,0.002-0.001,0.004c0,0.002,0,0.001-0.001,0.004c-0.011,0.047-0.024,0.1-0.028,0.149
				c0.002-0.001,0.003-0.001,0.005-0.002c-0.002,0.016-0.005,0.032-0.001,0.05c0.012,0.045,0.051,0.084,0.096,0.096
				c0.118,0.03,0.238-0.04,0.303-0.136c0.108-0.159,0.152-0.375,0.185-0.561c0.029-0.166,0.038-0.335,0.048-0.503
				C93.84,137.076,93.811,137.018,93.757,136.975z"/>
			<path style="opacity:0.45;fill:#9A3C32;" d="M123.326,89.104c-0.006-0.024-0.015-0.048-0.032-0.066
				c-0.018-0.027-0.041-0.045-0.071-0.055c-0.028-0.016-0.059-0.024-0.093-0.022c-0.048,0.001-0.096,0.014-0.141,0.033
				c-0.024-0.064-0.05-0.127-0.073-0.191c-0.005-0.023-0.016-0.041-0.033-0.054c-0.014-0.017-0.033-0.028-0.055-0.034
				c-0.046-0.014-0.107-0.005-0.149,0.015c-0.051,0.024-0.101,0.06-0.129,0.11c-0.024,0.042-0.038,0.087-0.028,0.136
				c0.028,0.126,0.054,0.254,0.099,0.375c0.014,0.039,0.031,0.077,0.05,0.114c0.009,0.017,0.016,0.035,0.029,0.05
				c0.032,0.037,0.064,0.065,0.114,0.077c0.073,0.018,0.142,0.008,0.21-0.021c0.03-0.013,0.061-0.03,0.087-0.051
				c0.025-0.02,0.05-0.039,0.07-0.063c0.019-0.023,0.038-0.047,0.056-0.072c0.011-0.016,0.021-0.032,0.031-0.049
				c0.006-0.011,0.012-0.022,0.017-0.033c0.011-0.022,0.021-0.044,0.032-0.066C123.333,89.192,123.336,89.148,123.326,89.104z"/>
			<path style="opacity:0.45;fill:#9A3C32;" d="M134.161,45.606c-0.016-0.112-0.042-0.223-0.077-0.331
				c-0.032-0.1-0.06-0.184-0.169-0.225c-0.056-0.021-0.122-0.034-0.181-0.034c-0.025,0-0.051,0.004-0.078,0.011
				c-0.017-0.006-0.034-0.013-0.056-0.014c-0.118-0.003-0.246,0.086-0.283,0.198c-0.188,0.568-0.252,1.178-0.057,1.754
				c0.061,0.179,0.301,0.17,0.428,0.065c0.211-0.175,0.368-0.393,0.44-0.66C134.195,46.119,134.199,45.864,134.161,45.606z"/>
			<path style="opacity:0.45;fill:#9A3C32;" d="M144.892,39.274c0.016-0.05,0.017-0.109-0.015-0.153
				c-0.03-0.043-0.088-0.067-0.139-0.066c-0.131,0.002-0.254,0.089-0.301,0.211c-0.041,0.105-0.067,0.221-0.07,0.334
				c-0.002,0.062,0.004,0.125,0.013,0.186c0.005,0.037,0.026,0.071,0.044,0.103c0.012,0.022,0.025,0.043,0.038,0.064
				c0.027,0.041,0.085,0.063,0.132,0.063c0.052-0.001,0.1-0.015,0.145-0.041c0.045-0.025,0.091-0.062,0.117-0.108
				c0.028-0.049,0.039-0.096,0.031-0.153c-0.001-0.009-0.002-0.018-0.003-0.026c-0.001-0.038-0.001-0.076-0.008-0.113
				c-0.004-0.02-0.007-0.041-0.01-0.061c-0.003-0.063,0-0.125,0.012-0.187C144.883,39.308,144.887,39.291,144.892,39.274z"/>
			<path style="opacity:0.45;fill:#9A3C32;" d="M192.202,91.997c0.044-0.028,0.092-0.034,0.141-0.031
				c0.001-0.041,0.004-0.081,0.004-0.122c0-0.071,0.063-0.103,0.128-0.09c0.073,0.015,0.132,0.074,0.143,0.147
				c0.012,0.079,0.022,0.158,0.029,0.238c0.033,0.049,0.05,0.111,0.025,0.165c-0.004,0.008-0.01,0.013-0.015,0.02
				c0.001,0.044,0.006,0.088,0.005,0.132c-0.002,0.096-0.009,0.193-0.021,0.289c-0.006,0.045-0.013,0.089-0.021,0.133
				c-0.001,0.012-0.002,0.013-0.003,0.002c-0.001,0.023-0.003,0.045-0.005,0.068c-0.005,0.025-0.015,0.05-0.023,0.074
				c-0.034,0.103-0.143,0.12-0.236,0.09c-0.103-0.033-0.197-0.122-0.208-0.234c-0.019-0.203-0.064-0.41-0.054-0.615
				C192.096,92.162,192.109,92.057,192.202,91.997z"/>
			<path style="opacity:0.45;fill:#9A3C32;" d="M191.268,98.502l0.001-0.009c-0.002-0.029,0.011-0.058,0.035-0.075
				c0.018-0.013,0.044-0.016,0.067-0.015c0.009-0.001,0.018-0.006,0.027-0.004c0.014,0.003,0.027,0.013,0.04,0.022
				c0.004,0.002,0.008,0.004,0.012,0.006c0.001,0.001,0.002,0.001,0.003,0.002c0.014,0.008,0.027,0.018,0.038,0.029
				c0,0,0.001,0,0.002,0.001c0.008,0.009,0.017,0.021,0.025,0.034c0.001,0.002,0.003,0.003,0.004,0.005
				c0.009,0.016,0.016,0.034,0.015,0.051c0.002,0.023,0.002,0.046-0.006,0.068c-0.006,0.075-0.011,0.149-0.02,0.223
				c-0.001,0.012-0.003,0.024-0.004,0.035c0,0.002-0.003,0.004-0.003,0.006c-0.002,0.005-0.005,0.01-0.008,0.014
				c-0.005,0.006-0.008,0.01-0.014,0.015c-0.002,0.001-0.005,0.003-0.007,0.004c-0.005,0.003-0.009,0.007-0.014,0.008
				c-0.002,0.001-0.005-0.001-0.007-0.001c-0.015,0.004-0.03,0.005-0.044,0.002c-0.005-0.001-0.009-0.006-0.014-0.007
				c-0.004-0.001-0.01,0.001-0.014-0.001c-0.008-0.004-0.013-0.012-0.02-0.017c-0.013-0.008-0.023-0.016-0.033-0.028
				c-0.004-0.005-0.011-0.007-0.014-0.012c-0.005-0.008-0.003-0.018-0.005-0.026c-0.003-0.008-0.01-0.013-0.011-0.022
				c-0.01-0.091-0.018-0.181-0.025-0.272c-0.001-0.009-0.001-0.017-0.002-0.026C191.27,98.507,191.268,98.505,191.268,98.502z"/>
			<path style="opacity:0.45;fill:#9A3C32;" d="M200.958,94.551c0.084-0.052,0.181-0.028,0.261,0.022
				c-0.001-0.009-0.001-0.017-0.002-0.026c-0.009-0.069,0.067-0.099,0.123-0.087c0.069,0.014,0.129,0.072,0.138,0.142
				c0.023,0.178,0.027,0.359,0.018,0.538c-0.004,0.091-0.013,0.183-0.028,0.273c-0.013,0.08-0.037,0.159-0.049,0.24
				c0.01,0.074-0.043,0.142-0.122,0.141c-0.101-0.001-0.197-0.069-0.233-0.163c-0.106-0.284-0.173-0.574-0.166-0.879
				C200.899,94.68,200.883,94.597,200.958,94.551z"/>
			<path style="opacity:0.45;fill:#9A3C32;" d="M183.453,98.488c0.011,0.022,0.021,0.044,0.032,0.066
				c0.006,0.011,0.012,0.022,0.018,0.033c0.009,0.017,0.019,0.033,0.031,0.049c0.018,0.025,0.036,0.049,0.056,0.072
				c0.02,0.024,0.046,0.043,0.071,0.063c0.026,0.021,0.057,0.039,0.087,0.051c0.069,0.029,0.137,0.039,0.21,0.021
				c0.049-0.012,0.082-0.04,0.113-0.077c0.013-0.015,0.02-0.033,0.029-0.049c0.019-0.037,0.036-0.075,0.05-0.114
				c0.045-0.121,0.071-0.249,0.099-0.375c0.011-0.049-0.004-0.094-0.028-0.136c-0.028-0.05-0.078-0.086-0.129-0.11
				c-0.042-0.02-0.103-0.029-0.149-0.015c-0.023,0.005-0.041,0.016-0.055,0.034c-0.018,0.014-0.029,0.032-0.033,0.054
				c-0.023,0.064-0.048,0.127-0.073,0.191c-0.045-0.019-0.093-0.032-0.141-0.033c-0.034-0.001-0.065,0.006-0.093,0.022
				c-0.029,0.01-0.053,0.028-0.071,0.055c-0.016,0.019-0.025,0.042-0.032,0.066C183.435,98.402,183.438,98.446,183.453,98.488z"/>
			<path style="opacity:0.45;fill:#9A3C32;" d="M172.643,55.625c0.072,0.267,0.229,0.485,0.44,0.66
				c0.126,0.105,0.367,0.114,0.428-0.065c0.195-0.576,0.131-1.186-0.057-1.754c-0.037-0.112-0.165-0.201-0.283-0.198
				c-0.022,0-0.039,0.007-0.056,0.013c-0.027-0.007-0.053-0.011-0.078-0.011c-0.059,0-0.126,0.014-0.181,0.035
				c-0.109,0.041-0.137,0.125-0.169,0.225c-0.035,0.108-0.061,0.219-0.077,0.331C172.572,55.118,172.576,55.373,172.643,55.625z"/>
			<path style="opacity:0.45;fill:#9A3C32;" d="M161.879,48.527c-0.016-0.05-0.017-0.109,0.014-0.153
				c0.03-0.042,0.088-0.066,0.139-0.066c0.131,0.002,0.254,0.089,0.301,0.211c0.041,0.105,0.067,0.221,0.07,0.334
				c0.002,0.062-0.004,0.125-0.013,0.186c-0.006,0.037-0.026,0.07-0.044,0.103c-0.012,0.022-0.025,0.043-0.038,0.064
				c-0.027,0.041-0.085,0.063-0.132,0.063c-0.052-0.001-0.1-0.015-0.145-0.041c-0.045-0.025-0.091-0.062-0.117-0.108
				c-0.028-0.049-0.039-0.096-0.031-0.153c0.001-0.009,0.002-0.018,0.003-0.026c0.001-0.038,0.001-0.076,0.008-0.113
				c0.004-0.021,0.007-0.041,0.01-0.061c0.004-0.063,0-0.125-0.012-0.186C161.888,48.562,161.884,48.544,161.879,48.527z"/>
			<path style="opacity:0.45;fill:#9A3C32;" d="M180.52,116.733c-0.008-0.034-0.073-0.185-0.027-0.068
				c-0.029-0.073-0.081-0.107-0.143-0.117c0.001-0.002,0.001-0.003,0.002-0.005c0.002-0.001,0.026-0.016,0.034-0.021
				c0.081-0.047,0.068-0.182-0.041-0.157c-0.094,0.021-0.157,0.044-0.224,0.109c-0.062,0.06-0.106,0.134-0.139,0.213
				c-0.008,0.019-0.013,0.039-0.02,0.059c-0.056,0.081-0.091,0.177-0.098,0.268c-0.011,0.146,0.015,0.301,0.029,0.445
				c0.015,0.156,0.032,0.311,0.047,0.467c0.002,0.016,0.003,0.033,0.004,0.049c0.001,0.007,0.002,0.026,0.003,0.031
				c0.003,0.038,0.006,0.076,0.008,0.114c0.004,0.071,0.009,0.142,0.011,0.214c-0.007,0.139,0.128,0.201,0.25,0.176
				c0.14-0.029,0.261-0.146,0.28-0.288c0.04-0.295,0.023-0.597,0.022-0.894c0-0.132-0.001-0.265,0.009-0.397
				C180.531,116.868,180.535,116.796,180.52,116.733z"/>
			<path style="opacity:0.45;fill:#9A3C32;" d="M180.821,128.122c-0.004-0.036-0.008-0.071-0.013-0.106
				c-0.005-0.035-0.017-0.068-0.028-0.102c-0.021-0.065-0.041-0.131-0.059-0.197c-0.007-0.057-0.073-0.112-0.125-0.125
				c-0.059-0.015-0.117-0.009-0.174,0.009c-0.063,0.02-0.127,0.056-0.172,0.106c-0.045,0.05-0.095,0.12-0.092,0.191
				c0.001,0.021,0.005,0.041,0.006,0.062c0,0,0,0,0,0c0,0,0,0.001,0.001,0.002c0.002,0.035,0.002,0.07,0.01,0.104
				c0.007,0.034,0.018,0.067,0.029,0.1c0.016,0.051,0.033,0.1,0.059,0.146c0.005,0.009,0.01,0.018,0.015,0.028
				c0.01,0.038,0.02,0.076,0.031,0.114c0.038,0.126,0.194,0.141,0.299,0.091c0.105-0.05,0.204-0.156,0.196-0.28
				c0.004-0.008,0.008-0.016,0.012-0.024C180.828,128.204,180.83,128.163,180.821,128.122z"/>
			<path style="opacity:0.45;fill:#9A3C32;" d="M191.546,145.757c-0.051-0.068-0.126-0.104-0.207-0.113
				c-0.003-0.049-0.005-0.099-0.006-0.148c-0.001-0.094-0.085-0.144-0.174-0.123c-0.099,0.024-0.18,0.099-0.195,0.201
				c-0.014,0.089-0.023,0.179-0.028,0.269c-0.021,0.031-0.038,0.063-0.05,0.098c-0.028,0.081-0.036,0.18,0.029,0.246
				c0.019,0.019,0.033,0.034,0.049,0.047c0.003,0.014,0.003,0.028,0.006,0.042c0.009,0.038,0.022,0.074,0.032,0.111
				c0.011,0.04,0.014,0.08,0.029,0.119c0.019,0.047,0.041,0.08,0.089,0.102c0.046,0.021,0.101,0.027,0.151,0.014
				c0.117-0.028,0.219-0.11,0.263-0.223c0.042-0.111,0.063-0.222,0.058-0.341C191.587,145.963,191.604,145.833,191.546,145.757z"/>
			<path style="opacity:0.45;fill:#9A3C32;" d="M178.475,147.966c-0.016-0.02-0.038-0.033-0.064-0.039
				c-0.018-0.003-0.036-0.005-0.054-0.008c-0.042,0-0.081,0.008-0.119,0.025c-0.02,0.011-0.039,0.022-0.059,0.033
				c-0.037,0.025-0.067,0.057-0.091,0.094c-0.035,0.072-0.071,0.145-0.106,0.217c-0.017,0.024-0.027,0.051-0.031,0.079
				c-0.008,0.025-0.008,0.051-0.001,0.077c0.005,0.026,0.018,0.047,0.038,0.063c0.016,0.02,0.038,0.033,0.064,0.039
				c0.018,0.003,0.036,0.005,0.054,0.008c0.041,0,0.081-0.008,0.118-0.025c0.02-0.011,0.039-0.022,0.059-0.033
				c0.036-0.025,0.066-0.056,0.09-0.094c0.037-0.072,0.073-0.144,0.11-0.216c0.017-0.024,0.027-0.051,0.031-0.08
				c0.008-0.025,0.008-0.051,0.001-0.078C178.509,148.003,178.496,147.982,178.475,147.966z"/>
			<path style="opacity:0.45;fill:#9A3C32;" d="M201.839,161.073c-0.019-0.097-0.123-0.15-0.214-0.15h0
				c-0.04,0-0.081,0.007-0.121,0.02c0.018-0.129,0.044-0.256,0.082-0.379c0.026-0.084-0.024-0.159-0.113-0.161
				c-0.094-0.003-0.19,0.068-0.221,0.155c-0.115,0.321-0.17,0.67-0.19,1.01c-0.02,0.342-0.008,0.701,0.045,1.04
				c0.016,0.104,0.143,0.141,0.23,0.132c0.108-0.011,0.246-0.082,0.295-0.185c0.133-0.277,0.176-0.586,0.206-0.889
				C201.859,161.468,201.878,161.27,201.839,161.073z"/>
			<path style="opacity:0.45;fill:#9A3C32;" d="M209.681,189.122c-0.003-0.028-0.007-0.054-0.026-0.078
				c-0.068-0.083-0.194-0.089-0.287-0.044c-0.103,0.051-0.204,0.147-0.209,0.269c0-0.002,0-0.004,0-0.005
				c0,0.01-0.003,0.021-0.003,0.031c-0.001,0.013,0.002,0.025,0.003,0.038c0,0.02-0.001,0.041-0.001,0.061
				c-0.011,0.021-0.018,0.043-0.017,0.067c0.003,0.119-0.001,0.238-0.002,0.357c-0.001,0.098,0.002,0.197-0.004,0.295
				c-0.001,0.012-0.003,0.023-0.003,0.035c0,0.002-0.001,0.005-0.001,0.007c0.001,0.006,0.001,0.005,0.001,0.01
				c0,0.004,0,0.008,0.001,0.012c0,0.004,0.002,0.007,0.001,0.011c0.001,0.009,0.001,0.008,0,0.001
				c-0.001,0.074,0.068,0.129,0.139,0.128c0.089-0.001,0.192-0.053,0.235-0.134c0.002-0.003,0.003-0.007,0.005-0.01
				c0.005-0.009,0.042-0.087,0.015-0.033c-0.027,0.057,0.014-0.031,0.019-0.054c0.009-0.04,0.017-0.081,0.024-0.122
				c0.012-0.071,0.023-0.142,0.033-0.213c0.021-0.15,0.04-0.301,0.058-0.451c0-0.004,0.001-0.008,0.002-0.012
				c0.002-0.007,0.004-0.013,0.006-0.02C209.687,189.214,209.687,189.179,209.681,189.122z"/>
			<path style="opacity:0.45;fill:#9A3C32;" d="M211.201,205.66c-0.003-0.005-0.005-0.009-0.008-0.014
				c-0.005-0.008-0.01-0.017-0.014-0.025c-0.02-0.037-0.041-0.074-0.061-0.11c-0.013-0.02-0.031-0.034-0.052-0.041
				c-0.021-0.012-0.044-0.018-0.069-0.017c-0.017,0.002-0.035,0.003-0.052,0.005c-0.029,0.005-0.056,0.016-0.08,0.032
				c-0.019,0.008-0.035,0.02-0.049,0.035c-0.023,0.018-0.043,0.039-0.058,0.064c-0.007,0.016-0.015,0.032-0.023,0.047
				c-0.011,0.031-0.013,0.062-0.006,0.093c0.017,0.038,0.035,0.077,0.052,0.115l0.012,0.027c0.002,0.005,0.004,0.01,0.006,0.014
				c0.017,0.037,0.021,0.057,0.056,0.081c0.018,0.012,0.044,0.02,0.066,0.029c0.009,0.004,0.018,0.007,0.027,0.011
				c0.028,0.007,0.056,0.008,0.084,0.001c0.024-0.005,0.046-0.013,0.067-0.027c0.023-0.011,0.043-0.026,0.06-0.045
				c0.021-0.022,0.037-0.048,0.048-0.077l0.006-0.03c0.005-0.024,0.014-0.052,0.016-0.074
				C211.229,205.715,211.219,205.695,211.201,205.66z"/>
			<path style="opacity:0.45;fill:#9A3C32;" d="M224.158,155.123c-0.041-0.314-0.155-0.625-0.35-0.877
				c-0.145-0.188-0.505-0.024-0.55,0.181c-0.018,0.085-0.031,0.165-0.009,0.25c0.005,0.02,0.015,0.04,0.022,0.06
				c0.005,0.014,0.009,0.027,0.013,0.041c0.006,0.027,0.006,0.03,0.002,0.007c0,0.105,0.069,0.173,0.157,0.194
				c0.013,0.145,0.025,0.289,0.043,0.433c0.016,0.133,0.035,0.267,0.062,0.399c0.028,0.135,0.074,0.265,0.104,0.4
				c0.022,0.096,0.134,0.122,0.218,0.105c0.103-0.021,0.204-0.102,0.238-0.202c0.051-0.149,0.061-0.327,0.07-0.484
				C224.187,155.461,224.18,155.292,224.158,155.123z"/>
			<path style="opacity:0.45;fill:#9A3C32;" d="M223.321,166.101c-0.213,0-0.413,0.379-0.13,0.379
				C223.404,166.48,223.604,166.101,223.321,166.101z"/>
			<path style="opacity:0.45;fill:#9A3C32;" d="M233.175,155.095c0.001-0.021-0.006-0.041-0.019-0.058l-0.029-0.029
				c-0.018-0.013-0.038-0.02-0.06-0.021c-0.015-0.004-0.031-0.004-0.046-0.001c-0.026,0.001-0.05,0.007-0.074,0.018
				c-0.048,0.023-0.097,0.057-0.123,0.105c-0.027,0.05-0.054,0.1-0.082,0.15c0.012-0.015,0.024-0.031,0.035-0.046
				c-0.02,0.024-0.042,0.046-0.057,0.074c-0.009,0.011-0.021,0.019-0.028,0.031c-0.013,0.024-0.025,0.049-0.036,0.073
				c-0.001,0.001-0.001,0.003-0.002,0.004c-0.003,0.007-0.01,0.047-0.011,0.055c-0.002,0.018-0.001,0.037,0.005,0.054
				c0.003,0.009,0.001,0.002,0.011,0.024c0.014,0.03,0.005,0.017,0.028,0.04c0.022,0.021,0.026,0.029,0.063,0.038
				c0.018,0.003,0.035,0.005,0.053,0.008c0.019,0.002,0.038,0,0.058-0.006c0.084-0.02,0.163-0.072,0.208-0.147
				c0.012-0.02,0.021-0.042,0.031-0.063c0.003-0.007,0.006-0.014,0.009-0.021c0.004-0.01,0.007-0.019,0.011-0.029
				c0.001-0.003,0.002-0.005,0.003-0.008c0.001-0.002,0.001-0.004,0.002-0.005c0.003-0.017,0.007-0.034,0.01-0.051
				c0-0.002,0-0.004,0-0.006c0.011-0.04,0.023-0.079,0.034-0.119C233.176,155.138,233.179,155.117,233.175,155.095z"/>
			<path style="opacity:0.45;fill:#9A3C32;" d="M231.879,205.362c0-0.001,0-0.001,0-0.002c-0.002-0.067-0.02-0.128-0.078-0.169
				c-0.045-0.031-0.108-0.038-0.165-0.032c-0.002-0.031-0.004-0.062-0.005-0.094c-0.008-0.201-0.308-0.087-0.318,0.067
				c-0.006,0.09-0.01,0.18-0.013,0.271c-0.011,0.027-0.02,0.055-0.019,0.083c0.001,0.053,0.013,0.107,0.021,0.159
				c0.001,0.006,0.001,0.011,0.002,0.017c0.001,0.014,0,0.028,0.001,0.042c0.007,0.1,0.017,0.199,0.034,0.297
				c0.002,0.012,0.004,0.025,0.007,0.037c0.001,0.007,0.002,0.01,0.002,0.013c0,0.002,0.001,0.005,0.001,0.007
				c0.002,0.033-0.001,0.066,0.004,0.1c0.009,0.071,0.042,0.111,0.109,0.142c0.086,0.039,0.227-0.029,0.282-0.094
				c0.066-0.079,0.077-0.15,0.085-0.245c0.007-0.079,0.012-0.157,0.018-0.236c0.006-0.081,0.009-0.162,0.019-0.243
				c0.003-0.028,0.007-0.056,0.01-0.085c0.001-0.009,0.002-0.017,0.003-0.026c0-0.002,0.001-0.005,0.001-0.007
				C231.86,205.454,231.86,205.453,231.879,205.362z"/>
			<path style="opacity:0.45;fill:#9A3C32;" d="M229.589,226.541c-0.04-0.024-0.083-0.031-0.129-0.026
				c-0.052,0.005-0.105,0.024-0.148,0.055c-0.017,0.015-0.034,0.029-0.051,0.044c-0.029,0.03-0.05,0.064-0.064,0.102
				c-0.01,0.022-0.022,0.045-0.03,0.068c-0.008,0.021-0.011,0.045-0.016,0.067c-0.012,0.054-0.023,0.109-0.034,0.163c0,0,0,0,0,0
				c0.003-0.013,0.005-0.026,0.008-0.038c-0.01,0.047-0.023,0.093-0.039,0.138c-0.011,0.048-0.02,0.105,0.014,0.148
				c0.028,0.035,0.064,0.053,0.107,0.06c0.048,0.007,0.1,0,0.144-0.021c0.057-0.027,0.118-0.069,0.148-0.126
				c0.042-0.08,0.077-0.163,0.104-0.249c0.01-0.033,0.016-0.067,0.024-0.101c0.008-0.032,0.017-0.065,0.019-0.098
				c0.001-0.018,0.002-0.037,0.004-0.055C229.653,226.625,229.63,226.566,229.589,226.541z"/>
			<path style="opacity:0.45;fill:#9A3C32;" d="M220.386,232.829c0.003,0.003,0.006,0.006,0.009,0.009
				c-0.012-0.012-0.023-0.025-0.034-0.037c0.019-0.015,0.038-0.03,0.051-0.05c0.029-0.037,0.057-0.087,0.058-0.136
				c-0.001-0.018-0.003-0.035-0.005-0.053l-0.021-0.047c-0.015-0.023-0.035-0.039-0.061-0.047c-0.024-0.014-0.051-0.021-0.08-0.019
				c-0.04,0.003-0.081,0.006-0.121,0.014c-0.008,0.002-0.017,0.004-0.025,0.007c-0.046,0.014-0.091,0.029-0.131,0.058
				c-0.001,0.001-0.003,0.002-0.005,0.003c-0.022,0.017-0.043,0.036-0.064,0.055c-0.005,0.005-0.01,0.009-0.015,0.015
				c-0.018,0.02-0.036,0.043-0.051,0.066c-0.026,0.043-0.041,0.084-0.047,0.134c-0.001,0.005-0.001,0.01-0.001,0.014
				c0.001,0.021,0.002,0.043,0.007,0.063c0.003,0.012,0.006,0.024,0.01,0.036c0.019,0.045,0.039,0.082,0.072,0.117
				c0.043,0.045,0.089,0.086,0.139,0.124c0.038,0.029,0.099,0.03,0.143,0.021c0.029-0.006,0.056-0.016,0.081-0.033
				c0.028-0.013,0.052-0.032,0.073-0.055c0.034-0.038,0.068-0.088,0.068-0.141c-0.001-0.015-0.003-0.031-0.004-0.046
				C220.428,232.87,220.411,232.847,220.386,232.829z"/>
			<path style="opacity:0.45;fill:#9A3C32;" d="M90.68,166.544c-0.006-0.083-0.019-0.165-0.03-0.247c0-0.001,0-0.002,0.001-0.002
				c0.003-0.073-0.007-0.16-0.027-0.231c-0.001,0.001-0.003,0.002-0.004,0.002c-0.011-0.048-0.033-0.09-0.08-0.122
				c-0.001-0.001-0.002-0.001-0.003-0.001c0.008-0.027,0.012-0.055,0.021-0.082c0.028-0.08-0.025-0.152-0.108-0.154
				c-0.093-0.003-0.179,0.065-0.212,0.149c-0.012,0.029-0.018,0.061-0.028,0.09c-0.14,0.064-0.25,0.184-0.272,0.341
				c-0.009,0.063-0.002,0.126,0.003,0.189c0.005,0.061,0.026,0.108,0.042,0.166c0.013,0.047,0.042,0.08,0.078,0.103
				c0.001,0.003,0.002,0.006,0.003,0.009c0.029,0.126,0.037,0.259,0.074,0.383c0.002-0.001,0.004-0.002,0.006-0.003
				c0.009,0.037,0.023,0.071,0.06,0.097c0.05,0.035,0.127,0.041,0.185,0.027c0.15-0.036,0.259-0.145,0.287-0.295
				C90.7,166.826,90.69,166.682,90.68,166.544z"/>
			<path style="opacity:0.45;fill:#9A3C32;" d="M79.55,182.949c0.014-0.033,0.018-0.067,0.011-0.102
				c0.002-0.023-0.004-0.043-0.016-0.062c-0.01-0.032-0.03-0.056-0.06-0.075c-0.018-0.014-0.041-0.02-0.062-0.029
				c-0.023-0.003-0.046-0.007-0.069-0.01c-0.039-0.001-0.077,0.005-0.113,0.02c-0.028,0.006-0.053,0.017-0.076,0.034
				c-0.039,0.019-0.074,0.045-0.103,0.077c-0.001,0-0.001,0.001-0.002,0.001c0,0,0,0.001-0.001,0.001
				c-0.007,0.006-0.046,0.058-0.051,0.065c-0.027,0.042-0.043,0.088-0.047,0.138c-0.003,0.033,0.005,0.064,0.018,0.093
				c0,0.003,0.001,0.006,0.001,0.008c0.001,0.006,0.002,0.011,0.003,0.017c0.002,0.012,0.004,0.024,0.006,0.036l0.01,0.059
				c0.001,0.004,0.001,0.008,0.002,0.011c0.001,0.007,0.008,0.01,0.01,0.016c0.002,0.003,0,0.007,0.002,0.01
				c0.003,0.009,0.013,0.014,0.018,0.022c0.006,0.007,0.007,0.018,0.015,0.024c0.002,0.003,0.006,0.003,0.008,0.005
				c0.005,0.004,0.006,0.011,0.012,0.015c0.009,0.006,0.02,0.006,0.029,0.01c0.008,0.004,0.014,0.012,0.024,0.014
				c0.007,0.002,0.014,0,0.022,0.001c0.003,0,0.006,0.003,0.009,0.003c0.011,0.002,0.022-0.001,0.033-0.001
				c0.011,0,0.021,0.004,0.032,0.002c0.004,0,0.007-0.002,0.011-0.003c0.007-0.001,0.015,0.001,0.022-0.001
				c0.023-0.007,0.046-0.015,0.069-0.022c0.022-0.013,0.045-0.025,0.067-0.038c0.011-0.008,0.017-0.02,0.027-0.028
				c0.01-0.008,0.023-0.013,0.032-0.022c0.015-0.019,0.03-0.038,0.045-0.057c0.01-0.02,0.019-0.041,0.029-0.061
				c0.004-0.01,0-0.02,0.002-0.03c0.002-0.011,0.01-0.02,0.011-0.031c0.002-0.012,0.004-0.024,0.006-0.036
				c0.003-0.021,0.006-0.042,0.01-0.063C79.546,182.958,79.547,182.954,79.55,182.949C79.549,182.95,79.549,182.95,79.55,182.949z"
				/>
			<path style="opacity:0.45;fill:#9A3C32;" d="M81.712,157.668c-0.009-0.019-0.017-0.038-0.026-0.057
				c-0.001-0.003-0.003-0.006-0.004-0.008c-0.003-0.005-0.005-0.011-0.008-0.016c-0.014-0.03-0.022-0.045-0.054-0.068
				c-0.051-0.036-0.114-0.037-0.173-0.025c-0.01-0.006-0.019-0.014-0.028-0.016c-0.039-0.01-0.078-0.006-0.116,0.006
				c-0.082,0.027-0.173,0.104-0.175,0.198c-0.002,0.083-0.008,0.165-0.021,0.247c-0.013,0.084-0.016,0.167-0.001,0.251
				c-0.001-0.017-0.003-0.035-0.004-0.052c0.002,0.025,0,0.053,0.007,0.077c0.007,0.025,0.022,0.052,0.032,0.074
				c0.01,0.021,0.022,0.04,0.036,0.058c0.063,0.083,0.188,0.084,0.276,0.042c0.044-0.021,0.085-0.049,0.12-0.084
				c0.047-0.046,0.071-0.106,0.082-0.169c0.016-0.098,0.027-0.198,0.04-0.297c0.004-0.01,0.008-0.021,0.011-0.031
				C81.719,157.756,81.721,157.712,81.712,157.668z"/>
			<path style="opacity:0.45;fill:#9A3C32;" d="M71.529,200.936c0.003-0.173-0.016-0.331-0.048-0.5
				c-0.005-0.029-0.006-0.057-0.01-0.086c-0.003-0.117-0.006-0.233-0.005-0.347c0.002-0.152-0.133-0.231-0.273-0.208
				c0.006-0.032,0.011-0.065,0.018-0.097c0.049-0.231-0.277-0.174-0.33-0.006c-0.217,0.696-0.252,1.431-0.1,2.145
				c0.023,0.111,0.155,0.14,0.249,0.12c0.127-0.026,0.219-0.118,0.273-0.232c0.095-0.201,0.14-0.416,0.16-0.635
				C71.502,201.045,71.528,200.992,71.529,200.936z"/>
			<g style="opacity:0.45;">
				<path style="fill:#9A3C32;" d="M62.982,170.027c0.001,0.01,0.001,0.02,0.002,0.03c0.001,0.012,0.002,0.023,0.004,0.035
					C62.986,170.07,62.984,170.049,62.982,170.027z"/>
				<path style="fill:#9A3C32;" d="M62.984,170.057c-0.003-0.031-0.006-0.062-0.009-0.092c0.038-0.068,0.061-0.143,0.039-0.216
					c-0.013-0.042-0.033-0.098-0.055-0.132c-0.071-0.111-0.185-0.135-0.298-0.111c-0.049-0.044-0.133-0.044-0.193-0.015
					c-0.085,0.04-0.173,0.132-0.149,0.234c0.004,0.016,0.008,0.031,0.012,0.047c-0.001,0.004-0.004,0.007-0.005,0.011
					c-0.04,0.119,0.012,0.238,0.039,0.354c0.028,0.12,0.056,0.239,0.094,0.356c0.012,0.058,0.067,0.104,0.121,0.12
					c0.063,0.019,0.146,0.007,0.204-0.021c0.069-0.033,0.138-0.082,0.176-0.15c0.01-0.021,0.02-0.042,0.03-0.063
					c0.015-0.04,0.017-0.081,0.008-0.123c0.001,0.015,0.003,0.031,0.004,0.046C62.994,170.22,62.99,170.138,62.984,170.057z"/>
			</g>
			<g style="opacity:0.45;">
				<path style="fill:#9A3C32;" d="M64.661,208.873c0.035-0.07,0.077-0.138,0.083-0.218c0.006-0.082-0.026-0.149-0.092-0.197
					c-0.079-0.057-0.183-0.034-0.267,0.006c0-0.001,0-0.001,0-0.002c0.003-0.002,0.005-0.003,0.008-0.005
					c-0.003,0.001-0.005,0.003-0.008,0.005c0-0.014,0-0.029,0-0.043c0-0.075-0.069-0.115-0.139-0.098
					c-0.077,0.019-0.146,0.079-0.156,0.16c-0.004,0.033-0.009,0.065-0.012,0.098c-0.003,0.016-0.003,0.018,0,0.006
					c-0.001,0.007-0.003,0.014-0.004,0.02c-0.003,0.016-0.007,0.032-0.01,0.047c-0.015,0.07-0.03,0.141-0.037,0.212
					c-0.007,0.062-0.01,0.125-0.01,0.188c0.001,0.069-0.009,0.137-0.011,0.207c0,0.009,0.004,0.015,0.004,0.023
					c0.001,0.011-0.001,0.022,0.001,0.033c0.002-0.001,0.004-0.002,0.005-0.003c0.024,0.084,0.106,0.129,0.199,0.12
					c0.057-0.006,0.116-0.026,0.163-0.061c0.054-0.04,0.089-0.088,0.118-0.146c0.025-0.056,0.048-0.112,0.073-0.168
					C64.598,208.997,64.629,208.935,64.661,208.873z"/>
				<path style="fill:#9A3C32;" d="M64.478,209.264c0.008-0.017,0.017-0.034,0.025-0.052c-0.003,0.005-0.006,0.009-0.009,0.014
					C64.489,209.239,64.484,209.252,64.478,209.264z"/>
				<polygon style="fill:#9A3C32;" points="64.506,209.205 64.503,209.212 64.503,209.212 				"/>
			</g>
			<path style="opacity:0.45;fill:#9A3C32;" d="M83.225,213.949c-0.023-0.051-0.055-0.089-0.099-0.117
				c0.011-0.08-0.04-0.148-0.128-0.151c-0.105-0.003-0.209,0.075-0.245,0.172c-0.004,0.012-0.006,0.024-0.01,0.036
				c-0.09,0.066-0.163,0.16-0.169,0.27c-0.006,0.115,0,0.228,0.009,0.342c0.003,0.042,0,0.088,0.014,0.128
				c0.005,0.013,0.012,0.026,0.019,0.039c0,0.246,0.027,0.493,0.045,0.738c0.008,0.108,0.072,0.19,0.189,0.188
				c0.117-0.002,0.261-0.07,0.315-0.179C83.39,214.961,83.436,214.419,83.225,213.949z"/>
			<path style="opacity:0.45;fill:#9A3C32;" d="M91.943,221.203c-0.003-0.033-0.004-0.067-0.01-0.1
				c-0.006-0.029-0.027-0.055-0.053-0.075c-0.015-0.033-0.029-0.066-0.045-0.099c-0.023-0.049-0.051-0.095-0.075-0.143
				c-0.003-0.007-0.007-0.015-0.009-0.022c-0.024-0.061-0.058-0.102-0.123-0.122c-0.063-0.019-0.148-0.007-0.206,0.021
				c-0.119,0.057-0.256,0.193-0.217,0.34c0.018,0.068,0.043,0.134,0.071,0.198c0.028,0.063,0.062,0.122,0.092,0.182
				c0.028,0.066,0.048,0.134,0.056,0.206c0.001,0.023,0.003,0.046,0.005,0.068c0,0,0,0,0,0c-0.002-0.018-0.003-0.036-0.005-0.055
				c0.002,0.025,0.003,0.049,0.003,0.074c-0.012,0.139,0.134,0.208,0.253,0.179c0.073-0.018,0.146-0.055,0.197-0.112
				c0.048-0.054,0.072-0.109,0.087-0.181C91.99,221.444,91.976,221.32,91.943,221.203z"/>
			<g>
				<g>
					<path style="fill:#E4D2BC;" d="M258.209,148.958c0,0-7.639,49.007-9.081,89.077h-7.928c0,0,4.324-66.88,9.945-91.383
						L258.209,148.958z"/>
					<path style="fill:#B38C60;" d="M249.128,238.361h-7.927c-0.09,0-0.176-0.037-0.238-0.103c-0.062-0.066-0.093-0.154-0.088-0.244
						c0.011-0.167,1.102-16.95,2.866-36.511c1.628-18.06,4.18-42.248,7.088-54.924c0.02-0.089,0.077-0.166,0.157-0.211
						c0.079-0.045,0.174-0.055,0.261-0.026l7.063,2.306c0.152,0.05,0.245,0.202,0.221,0.36c-0.076,0.49-7.653,49.447-9.077,89.039
						C249.448,238.222,249.304,238.361,249.128,238.361z M241.549,237.71h7.265c1.397-38.033,8.418-84.526,9.031-88.527l-6.46-2.11
						C246.079,170.632,241.895,232.491,241.549,237.71z"/>
				</g>
				<path style="fill:#E4D2BC;" d="M247.931,225.966c0.648-6.681,1.348-13.357,2.036-20.034c0.708-6.868,1.584-13.715,2.429-20.567
					c0.424-3.436,0.869-6.87,1.274-10.309c0.414-3.513,0.694-7.044,1.17-10.549c0.717-5.292,1.73-10.538,2.566-15.811l0.804,0.262
					c0,0-7.639,49.007-9.081,89.077h-2.086C247.201,234.004,247.542,229.977,247.931,225.966z"/>
				<g>
					<path style="fill:#E4D2BC;" d="M243.483,238.035h-2.282c0,0,4.324-66.88,9.945-91.383l7.063,2.306c0,0-0.171,1.096-0.464,3.081
						l-4.581-1.496C248.359,171.492,244.501,223.411,243.483,238.035z"/>
				</g>
			</g>
		</g>
		<g>
			<g>
				<path style="fill:#C24E43;" d="M10.689,154.868c0,0,0.137-0.037,0.386-0.105l0.047-0.039L10.689,154.868z"/>
				<path style="fill:#813027;" d="M10.689,155.031c-0.07,0-0.135-0.046-0.156-0.116c-0.025-0.084,0.021-0.173,0.105-0.201
					l0.432-0.144c0.074-0.025,0.155,0.007,0.194,0.075c0.038,0.068,0.023,0.154-0.037,0.204l-0.047,0.039
					c-0.018,0.015-0.039,0.026-0.062,0.033c-0.249,0.069-0.387,0.105-0.387,0.105C10.717,155.029,10.703,155.031,10.689,155.031z"/>
			</g>
			<g>
				<path style="fill:#9A3C32;" d="M285.894,154.763c-4.348-1.196-44.924-12.743-58.422-30.741
					c-10.471-13.962-27.963-76.681-27.963-76.681c-21.663-8.424-43.422-25.488-50.016-30.891h-2.018
					c-6.594,5.404-28.353,22.467-50.016,30.891c0,0-17.492,62.72-27.963,76.681c-13.498,17.998-54.075,29.545-58.422,30.741
					l-5.431,4.573c0,0,6.919-0.288,18.161-3.603c11.243-3.315,40.503-14.558,50.736-28.539c0,0,17.441-35.025,26.81-73.798
					c0,0,31.71-11.964,46.556-27.674h1.153c14.846,15.711,46.556,27.674,46.556,27.674c9.369,38.773,26.81,73.798,26.81,73.798
					c10.234,13.981,39.494,25.224,50.736,28.539c11.243,3.315,18.161,3.603,18.161,3.603L285.894,154.763z"/>
				<path style="fill:#813027;" d="M291.325,159.499c-0.002,0-0.004,0-0.007,0c-0.069-0.003-7.067-0.327-18.201-3.61
					c-10.601-3.126-40.397-14.357-50.822-28.599c-0.189-0.374-17.545-35.459-26.816-73.773c-1.79-0.687-32.131-12.485-46.488-27.633
					h-1.013c-14.357,15.147-44.694,26.945-46.488,27.633c-9.271,38.314-26.628,73.399-26.802,73.749
					c-10.439,14.265-40.235,25.497-50.836,28.623c-11.133,3.283-18.131,3.607-18.201,3.61c-0.076,0.006-0.134-0.039-0.159-0.104
					c-0.025-0.065-0.007-0.139,0.047-0.184l5.431-4.573c0.018-0.015,0.039-0.026,0.062-0.032
					c4.555-1.253,44.893-12.759,58.335-30.681c10.333-13.778,27.761-76,27.936-76.627c0.014-0.049,0.05-0.089,0.098-0.108
					c21.737-8.453,43.744-25.762,49.971-30.866c0.029-0.024,0.066-0.037,0.103-0.037h2.018c0.038,0,0.074,0.013,0.103,0.037
					c6.227,5.104,28.235,22.412,49.972,30.866c0.048,0.019,0.084,0.058,0.098,0.108c0.175,0.627,17.603,62.85,27.936,76.627
					c13.441,17.922,53.78,29.428,58.335,30.681c0.023,0.006,0.044,0.017,0.062,0.032l5.431,4.573
					c0.053,0.045,0.072,0.119,0.047,0.184C291.452,159.458,291.392,159.499,291.325,159.499z M147.908,25.558h1.153
					c0.045,0,0.088,0.018,0.118,0.051c14.651,15.504,46.179,27.514,46.495,27.634c0.05,0.019,0.088,0.062,0.101,0.114
					c9.257,38.31,26.623,73.414,26.797,73.764c10.357,14.145,40.065,25.338,50.637,28.456c9.42,2.778,15.862,3.43,17.631,3.565
					l-5.024-4.231c-4.73-1.303-45.002-12.826-58.475-30.79c-10.202-13.602-27.252-74.105-27.967-76.656
					c-21.705-8.461-43.65-25.7-49.939-30.851h-1.901c-6.29,5.151-28.234,22.39-49.939,30.851
					c-0.716,2.551-17.766,63.054-27.967,76.656c-13.474,17.965-53.745,29.487-58.475,30.79l-5.024,4.231
					c1.769-0.135,8.211-0.787,17.631-3.565c10.572-3.117,40.28-14.31,50.651-28.479c0.16-0.326,17.526-35.43,26.783-73.74
					c0.013-0.052,0.05-0.095,0.101-0.114c0.317-0.119,31.846-12.13,46.496-27.634C147.82,25.576,147.863,25.558,147.908,25.558z"/>
			</g>
			<g>
				<path style="fill:#9A3C32;" d="M285.894,154.763c-4.348-1.196-44.924-12.743-58.422-30.741
					c-10.471-13.962-27.963-76.681-27.963-76.681c-21.663-8.424-43.422-25.488-50.016-30.891h-0.702v9.271h0.27
					c14.846,15.711,46.556,27.674,46.556,27.674c9.369,38.773,26.81,73.798,26.81,73.798c10.234,13.981,39.494,25.224,50.736,28.539
					c11.243,3.315,18.161,3.603,18.161,3.603L285.894,154.763z"/>
				<path style="fill:#813027;" d="M291.325,159.499c-0.002,0-0.004,0-0.007,0c-0.069-0.003-7.067-0.327-18.201-3.61
					c-10.601-3.126-40.398-14.358-50.822-28.599c-0.189-0.374-17.545-35.459-26.816-73.773
					c-1.794-0.688-32.132-12.486-46.488-27.633h-0.199c-0.09,0-0.163-0.073-0.163-0.163V16.45c0-0.09,0.073-0.163,0.163-0.163h0.702
					c0.038,0,0.074,0.013,0.103,0.037c6.227,5.104,28.235,22.412,49.972,30.866c0.048,0.019,0.084,0.058,0.098,0.108
					c0.175,0.627,17.603,62.85,27.936,76.627c13.441,17.922,53.78,29.428,58.335,30.681c0.023,0.006,0.044,0.017,0.062,0.032
					l5.431,4.573c0.053,0.045,0.072,0.119,0.047,0.184C291.452,159.458,291.392,159.499,291.325,159.499z M148.954,25.558h0.107
					c0.045,0,0.088,0.018,0.118,0.051c14.651,15.504,46.179,27.514,46.495,27.634c0.05,0.019,0.088,0.062,0.101,0.114
					c9.257,38.31,26.623,73.414,26.797,73.764c10.356,14.145,40.065,25.338,50.637,28.456c9.42,2.778,15.862,3.43,17.631,3.565
					l-5.024-4.231c-4.729-1.303-45.002-12.826-58.475-30.79c-5.423-7.23-12.745-27.713-17.933-43.623
					c-5.413-16.601-9.691-31.807-10.035-33.033c-21.705-8.461-43.65-25.7-49.939-30.851h-0.481V25.558z"/>
			</g>
			<g>
				<path style="fill:#C24E43;" d="M285.848,154.724l0.047,0.039c0.248,0.068,0.386,0.105,0.386,0.105L285.848,154.724z"/>
				<path style="fill:#813027;" d="M286.28,155.031c-0.014,0-0.028-0.002-0.042-0.006c0,0-0.138-0.037-0.387-0.105
					c-0.023-0.006-0.044-0.017-0.062-0.033l-0.047-0.039c-0.06-0.05-0.075-0.136-0.037-0.204c0.038-0.068,0.119-0.1,0.194-0.075
					l0.432,0.144c0.083,0.028,0.13,0.117,0.104,0.201C286.415,154.985,286.35,155.031,286.28,155.031z"/>
			</g>
		</g>
		<g>
			<path d="M148.773,4.119c-0.064,0-0.127-0.037-0.153-0.095c-0.027-0.059-0.021-0.129,0.023-0.177
				c0.03-0.033,0.078-0.055,0.124-0.056c0.037-0.001,0.094,0.02,0.125,0.053c0.044,0.047,0.057,0.115,0.033,0.175
				c-0.025,0.06-0.082,0.099-0.147,0.101C148.775,4.119,148.774,4.119,148.773,4.119z M148.768,3.961l-0.113,0.108L148.768,3.961z
				 M148.883,4.066h0.003H148.883z"/>
			<path d="M148.134,4.119c-0.065,0-0.129-0.039-0.155-0.099c-0.026-0.06-0.018-0.129,0.027-0.177
				c0.031-0.033,0.074-0.053,0.125-0.053c0.045,0.001,0.093,0.023,0.124,0.056c0.043,0.048,0.054,0.117,0.028,0.176
				C148.257,4.081,148.199,4.119,148.134,4.119z M148.242,4.068h0.003H148.242z M148.129,3.961l-0.116,0.105L148.129,3.961z"/>
			<g>
				<path style="fill:#E4D2BC;" d="M231.58,122.725c-11.531-17.585-28.395-79.996-28.395-79.996
					c-39.205-13.117-51.457-35.314-52.322-37.043c-0.547-1.094-1.496-1.495-2.121-1.643c0.007-0.047,0.014-0.078,0.021-0.086
					c-0.024,0-0.138,0.004-0.314,0.03c-0.176-0.026-0.29-0.03-0.314-0.03c0.008,0.008,0.015,0.039,0.021,0.086
					c-0.625,0.148-1.574,0.549-2.121,1.643c-0.865,1.73-13.117,23.927-52.322,37.043c0,0-16.864,62.412-28.395,79.996
					S4.779,151.841,4.779,151.841l0.865,7.495c0,0,53.763-12.684,66.447-33.872c12.684-21.188,26.954-74.952,26.954-74.952
					s40.935-17.296,48.574-32.575l0.829-0.207l0.829,0.207c7.639,15.279,48.574,32.575,48.574,32.575s14.27,53.763,26.954,74.952
					c12.684,21.188,66.447,33.872,66.447,33.872l0.865-7.495C292.118,151.841,243.111,140.31,231.58,122.725z"/>
				<path style="fill:#B38C60;" d="M291.253,159.662c-0.025,0-0.05-0.003-0.075-0.009c-0.135-0.032-13.635-3.243-28.51-9.004
					c-13.758-5.328-31.542-13.994-38.142-25.018c-12.227-20.425-26.086-71.666-26.948-74.881
					c-3.097-1.319-40.912-17.663-48.524-32.533l-0.605-0.151l-0.605,0.151c-7.612,14.869-45.428,31.214-48.524,32.533
					c-0.862,3.215-14.721,54.456-26.948,74.881c-6.6,11.025-24.385,19.69-38.142,25.018c-14.875,5.761-28.376,8.972-28.51,9.004
					c-0.09,0.021-0.186,0.003-0.262-0.05c-0.076-0.054-0.126-0.137-0.136-0.229l-0.865-7.495c-0.019-0.164,0.088-0.317,0.249-0.355
					c0.489-0.115,49.012-11.702,60.34-28.977c11.371-17.34,28.185-79.279,28.353-79.903c0.028-0.105,0.108-0.19,0.211-0.224
					c16.349-5.47,29.949-13.115,40.422-22.723c8.463-7.764,11.583-13.9,11.712-14.157c0.534-1.067,1.405-1.543,2.114-1.755
					c0.06-0.097,0.164-0.15,0.282-0.155c0.031,0.001,0.141,0.004,0.31,0.027c0.169-0.023,0.279-0.026,0.31-0.027
					c0.115-0.005,0.223,0.059,0.282,0.156c0.627,0.19,1.562,0.65,2.113,1.754c0.129,0.257,3.249,6.393,11.712,14.157
					c10.473,9.608,24.073,17.253,40.422,22.723c0.103,0.035,0.183,0.119,0.211,0.224c0.169,0.624,16.982,62.562,28.353,79.903
					c11.328,17.275,59.851,28.862,60.34,28.977c0.161,0.038,0.268,0.19,0.249,0.355l-0.865,7.495
					c-0.011,0.092-0.061,0.176-0.137,0.229C291.385,159.642,291.319,159.662,291.253,159.662z M5.136,152.09l0.79,6.842
					c4.699-1.157,53.956-13.707,65.886-33.636C84.327,104.39,98.588,50.966,98.73,50.429c0.026-0.097,0.095-0.177,0.188-0.217
					c0.102-0.043,10.35-4.391,21.396-10.545c10.166-5.665,23.105-14.058,27.014-21.875c0.043-0.085,0.12-0.147,0.212-0.17
					l0.829-0.207c0.052-0.013,0.106-0.013,0.158,0l0.829,0.207c0.092,0.023,0.17,0.085,0.212,0.17
					c3.909,7.817,16.848,16.211,27.014,21.875c11.046,6.155,21.294,10.502,21.396,10.545c0.093,0.039,0.162,0.119,0.188,0.217
					c0.143,0.537,14.403,53.961,26.918,74.868c11.93,19.929,61.188,32.479,65.886,33.636l0.789-6.842
					c-1.916-0.466-13.285-3.3-25.701-7.908c-18.239-6.767-29.931-13.927-34.752-21.279c-11.133-16.978-27.405-76.299-28.391-79.921
					c-16.362-5.495-29.985-13.167-40.49-22.805c-8.551-7.844-11.724-14.084-11.854-14.346c-0.479-0.957-1.3-1.329-1.905-1.472
					c-0.046-0.011-0.087-0.031-0.123-0.058c-0.015,0.002-0.031,0.004-0.047,0.007c-0.032,0.005-0.064,0.005-0.096,0
					c-0.016-0.003-0.032-0.005-0.047-0.007c-0.035,0.027-0.077,0.047-0.123,0.058c-0.605,0.143-1.426,0.514-1.905,1.472
					c-0.131,0.262-3.304,6.502-11.854,14.346c-10.506,9.638-24.128,17.31-40.49,22.805c-0.987,3.622-17.258,62.944-28.391,79.921
					c-4.821,7.352-16.514,14.512-34.752,21.279C18.421,148.79,7.052,151.624,5.136,152.09z M149.004,4.175
					c-0.001,0.001-0.001,0.001-0.002,0.002C149.003,4.177,149.003,4.176,149.004,4.175z M147.893,4.175
					c0.001,0.001,0.001,0.001,0.002,0.002C147.894,4.176,147.894,4.176,147.893,4.175z M147.891,4.174
					C147.892,4.174,147.892,4.174,147.891,4.174C147.892,4.174,147.892,4.174,147.891,4.174z M147.836,4.088
					c0.002,0.005,0.006,0.013,0.012,0.023C147.843,4.103,147.84,4.096,147.836,4.088L147.836,4.088z"/>
			</g>
			<path style="opacity:0.49;fill:#B38C60;" d="M289.521,156.561c-0.029,0-0.057-0.004-0.086-0.012
				c-11.116-3.052-24.244-6.982-37.322-12.991c-6.552-2.849-14.018-6.716-19.667-13.777c-6.602-8.803-12.931-20.908-16.524-31.601
				c-5.612-16.704-9.842-31.711-12.37-40.677c-1.304-4.625-2.343-8.311-2.65-8.875c-11.055-3.702-20.335-9.888-29.309-15.871
				c-0.528-0.377-1.031-0.731-1.52-1.076c-1.635-1.152-3.179-2.24-4.699-3.506l-0.105-0.098
				c-5.509-5.185-10.713-10.082-14.302-16.927c-0.695-1.04-1.54-2.062-2.573-1.805c-0.011,0.003-0.022,0.005-0.033,0.006
				c-1.474,0.211-2.215,1.684-2.999,3.244c-0.312,0.621-0.635,1.264-1.011,1.828c-2.34,3.803-8.399,9.93-10.199,11.717l-0.065,0.064
				c-9.898,9.26-35.424,21.886-38.013,23.035c-6.452,21.991-13.639,45.537-24.185,70.371c-1.975,4.279-6.128,9.251-9.357,12.48
				c-15.241,13.62-34.839,18.936-53.793,24.078l-0.543,0.147c-0.173,0.047-0.353-0.055-0.4-0.229
				c-0.047-0.174,0.055-0.352,0.229-0.4l0.543-0.147c18.88-5.122,38.403-10.418,53.516-23.923c3.176-3.177,7.274-8.079,9.209-12.271
				c10.552-24.849,17.741-48.423,24.198-70.438c0.028-0.096,0.099-0.174,0.192-0.211c1.47-0.588,27.88-13.54,37.951-22.961
				l0.059-0.059c1.788-1.774,7.801-7.854,10.11-11.606c0.36-0.541,0.674-1.165,0.978-1.769c0.823-1.636,1.673-3.327,3.473-3.593
				c1.609-0.391,2.728,1.287,3.266,2.094c0.006,0.01,0.012,0.019,0.018,0.03c3.539,6.756,8.708,11.621,14.18,16.771l0.091,0.086
				c1.484,1.236,3.018,2.317,4.641,3.461c0.491,0.346,0.994,0.7,1.515,1.072c8.955,5.97,18.224,12.149,29.236,15.819
				c0.015,0.005,0.029,0.011,0.043,0.018c0.339,0.17,0.641,1.122,2.937,9.268c2.526,8.961,6.753,23.958,12.36,40.647
				c3.572,10.631,9.865,22.666,16.422,31.409c5.554,6.942,12.933,10.761,19.418,13.581c13.042,5.992,26.138,9.912,37.229,12.957
				c0.173,0.048,0.276,0.227,0.228,0.4C289.795,156.466,289.664,156.561,289.521,156.561z M200.872,48.583L200.872,48.583
				L200.872,48.583z"/>
			<g>
				<g>
					<path style="fill:#E4D2BC;" d="M150.869,20.524c0.034,0.047,0.066,0.093,0.1,0.139c-0.023-0.044-0.048-0.088-0.07-0.132
						L150.869,20.524z"/>
					<path style="fill:#B38C60;" d="M150.969,20.989c-0.1,0-0.199-0.047-0.263-0.133l-0.102-0.142
						c-0.08-0.111-0.082-0.261-0.005-0.374c0.077-0.113,0.216-0.167,0.35-0.132l0.029,0.007c0.092,0.023,0.169,0.085,0.211,0.17
						l0.068,0.128c0.078,0.151,0.026,0.337-0.118,0.426C151.087,20.974,151.028,20.989,150.969,20.989z"/>
				</g>
				<path style="opacity:0.47;fill:#E4D2BC;" d="M66.939,125.32c11.531-17.585,28.395-79.996,28.395-79.996
					c39.205-13.117,51.457-35.314,52.322-37.043c0.547-1.094,1.496-1.495,2.121-1.643c-0.007-0.047-0.014-0.078-0.021-0.086
					c0.024,0,0.138,0.004,0.315,0.03c0.177-0.026,0.29-0.029,0.314-0.03c-0.008,0.009-0.015,0.039-0.021,0.086
					c0.438,0.104,1.034,0.338,1.541,0.843c-0.588-0.932-0.923-1.557-1.042-1.795c-0.547-1.094-1.496-1.495-2.121-1.643
					c0.007-0.047,0.014-0.078,0.021-0.086c-0.024,0-0.138,0.004-0.314,0.03c-0.176-0.026-0.29-0.03-0.314-0.03
					c0.008,0.008,0.015,0.039,0.021,0.086c-0.625,0.148-1.574,0.549-2.121,1.643c-0.865,1.73-13.117,23.927-52.322,37.043
					c0,0-16.864,62.412-28.395,79.996C53.786,140.31,4.779,151.841,4.779,151.841l0.865,7.495c0,0,0.454-0.107,1.286-0.317
					l-0.529-4.583C6.401,154.436,55.408,142.904,66.939,125.32z"/>
				<path style="fill:#E4D2BC;" d="M291.872,153.972l0.246-2.131c0,0-48.133-11.328-60.215-28.649
					c0.439,0.766,0.873,1.478,1.298,2.128C243.388,140.855,282.817,151.663,291.872,153.972z"/>
				<g>
					<path style="fill:#E4D2BC;" d="M152.484,8.28c-0.163-0.326-0.364-0.585-0.58-0.8c0.23,0.365,0.499,0.776,0.809,1.231
						C152.606,8.516,152.529,8.369,152.484,8.28z"/>
					<path style="fill:#B38C60;" d="M152.714,9.037c-0.104,0-0.206-0.05-0.27-0.142c-0.293-0.429-0.567-0.847-0.816-1.241
						c-0.088-0.14-0.057-0.325,0.072-0.428c0.13-0.104,0.316-0.093,0.433,0.024c0.267,0.266,0.477,0.555,0.642,0.885l0,0
						c0.044,0.087,0.118,0.23,0.223,0.419c0.084,0.152,0.034,0.344-0.114,0.435C152.831,9.021,152.772,9.037,152.714,9.037z"/>
				</g>
			</g>
		</g>
		<g>
			<g>
				<path style="fill:#E4D2BC;" d="M38.183,148.958c0,0,7.639,49.007,9.081,89.077h7.928c0,0-4.324-66.88-9.945-91.383
					L38.183,148.958z"/>
				<path style="fill:#B38C60;" d="M55.192,238.361h-7.928c-0.175,0-0.319-0.139-0.326-0.314
					c-1.424-39.593-9.001-88.549-9.077-89.039c-0.024-0.158,0.069-0.31,0.221-0.36l7.063-2.306c0.087-0.029,0.182-0.019,0.262,0.026
					c0.08,0.045,0.137,0.122,0.157,0.211c2.908,12.676,5.459,36.864,7.088,54.924c1.764,19.561,2.855,36.344,2.865,36.511
					c0.006,0.09-0.026,0.178-0.088,0.244C55.368,238.324,55.282,238.361,55.192,238.361z M47.578,237.71h7.265
					c-0.346-5.218-4.53-67.078-9.836-90.637l-6.46,2.11C39.16,153.183,46.181,199.677,47.578,237.71z"/>
			</g>
			<path style="fill:#E4D2BC;" d="M48.461,225.966c-0.647-6.681-1.347-13.357-2.036-20.034c-0.708-6.868-1.584-13.715-2.429-20.567
				c-0.424-3.436-0.869-6.87-1.274-10.309c-0.414-3.513-0.694-7.044-1.17-10.549c-0.718-5.292-1.73-10.538-2.566-15.811
				l-0.804,0.262c0,0,7.639,49.007,9.081,89.077h2.086C49.191,234.004,48.85,229.977,48.461,225.966z"/>
			<g>
				<path style="fill:#E4D2BC;" d="M52.91,238.035h2.282c0,0-4.324-66.88-9.945-91.383l-7.063,2.306c0,0,0.171,1.096,0.464,3.081
					l4.581-1.496C48.034,171.492,51.891,223.411,52.91,238.035z"/>
			</g>
		</g>
	</g>
	<g>
		<g>
			<rect x="124.143" y="98.618" style="fill:#E4D2BC;" width="47.025" height="44.106"/>
			<path style="fill:#B38C60;" d="M171.168,143.05h-47.025c-0.18,0-0.326-0.146-0.326-0.326V98.618c0-0.18,0.146-0.326,0.326-0.326
				h47.025c0.18,0,0.326,0.146,0.326,0.326v44.106C171.494,142.904,171.348,143.05,171.168,143.05z M124.469,142.398h46.373V98.944
				h-46.373V142.398z"/>
		</g>
		<g>
			<rect x="130.132" y="103.965" style="fill:#5C1B11;" width="35.336" height="33.143"/>
			<path style="fill:#813027;" d="M165.467,137.271h-35.336c-0.09,0-0.163-0.073-0.163-0.163v-33.143
				c0-0.09,0.073-0.163,0.163-0.163h35.336c0.09,0,0.163,0.073,0.163,0.163v33.143C165.63,137.198,165.557,137.271,165.467,137.271z
				 M130.294,136.945h35.01v-32.817h-35.01V136.945z"/>
		</g>
		<rect x="133.129" y="106.777" style="fill:#A34036;" width="31.204" height="28.782"/>
		<g>
			<rect x="138.332" y="103.965" style="fill:#813027;" width="0.85" height="33.143"/>
			<rect x="132.71" y="103.965" style="fill:#813027;" width="0.85" height="33.143"/>
			<rect x="143.953" y="103.965" style="fill:#813027;" width="0.85" height="33.143"/>
			<rect x="149.574" y="103.965" style="fill:#813027;" width="0.85" height="33.143"/>
			<rect x="155.196" y="103.965" style="fill:#813027;" width="0.85" height="33.143"/>
			<rect x="160.817" y="103.965" style="fill:#813027;" width="0.85" height="33.143"/>
		</g>
		<g>
			<g>
				<path style="fill:#9A3C32;" d="M125.729,99.915v44.106h47.025V99.915H125.729z M167.053,138.405h-35.336v-33.143h35.336V138.405
					z"/>
				<path style="fill:#813027;" d="M172.754,144.184h-47.025c-0.09,0-0.163-0.073-0.163-0.163V99.916
					c0-0.09,0.073-0.163,0.163-0.163h47.025c0.09,0,0.163,0.073,0.163,0.163v44.106
					C172.917,144.112,172.844,144.184,172.754,144.184z M125.892,143.859h46.699v-43.78h-46.699V143.859z M167.053,138.568h-35.336
					c-0.09,0-0.163-0.073-0.163-0.163v-33.143c0-0.09,0.073-0.163,0.163-0.163h35.336c0.09,0,0.163,0.073,0.163,0.163v33.143
					C167.216,138.495,167.143,138.568,167.053,138.568z M131.88,138.242h35.01v-32.817h-35.01V138.242z"/>
			</g>
			<g>
				<g>
					<polygon style="fill:#E4D2BC;" points="129.116,105.213 164.898,138.833 166.412,138.833 166.412,134.617 132.359,102.834 
						129.224,102.834 					"/>
					<path style="fill:#B38C60;" d="M166.412,139.158h-1.514c-0.083,0-0.163-0.032-0.223-0.088l-35.782-33.62
						c-0.069-0.065-0.107-0.157-0.102-0.252l0.108-2.378c0.008-0.174,0.151-0.311,0.326-0.311h3.135
						c0.083,0,0.162,0.031,0.222,0.088l34.053,31.782c0.066,0.062,0.104,0.148,0.104,0.238v4.216
						C166.737,139.013,166.592,139.158,166.412,139.158z M165.027,138.507h1.059v-3.749l-33.855-31.598h-2.695l-0.087,1.918
						L165.027,138.507z"/>
				</g>
				<g>
					<polygon style="fill:#E4D2BC;" points="129.116,136.454 164.898,102.834 166.412,102.834 166.412,107.05 132.359,138.833 
						129.224,138.833 					"/>
					<path style="fill:#B38C60;" d="M132.359,139.158h-3.135c-0.174,0-0.318-0.137-0.326-0.311l-0.108-2.378
						c-0.004-0.095,0.033-0.187,0.102-0.252l35.782-33.62c0.06-0.057,0.14-0.088,0.223-0.088h1.514c0.18,0,0.326,0.146,0.326,0.326
						v4.216c0,0.09-0.037,0.177-0.104,0.238l-34.053,31.782C132.521,139.127,132.442,139.158,132.359,139.158z M129.535,138.507
						h2.695l33.855-31.598v-3.749h-1.059l-35.579,33.429L129.535,138.507z"/>
				</g>
			</g>
			<g>
				<path style="fill:#E4D2BC;" d="M124.143,98.618v44.106h47.025V98.618H124.143z M165.467,137.108h-35.336v-33.143h35.336V137.108
					z"/>
				<path style="fill:#B38C60;" d="M171.168,143.05h-47.025c-0.18,0-0.326-0.146-0.326-0.326V98.618c0-0.18,0.146-0.326,0.326-0.326
					h47.025c0.18,0,0.326,0.146,0.326,0.326v44.106C171.494,142.904,171.348,143.05,171.168,143.05z M124.469,142.398h46.373V98.944
					h-46.373V142.398z M165.467,137.434h-35.336c-0.18,0-0.326-0.146-0.326-0.326v-33.143c0-0.18,0.146-0.326,0.326-0.326h35.336
					c0.18,0,0.326,0.146,0.326,0.326v33.143C165.793,137.288,165.647,137.434,165.467,137.434z M130.457,136.782h34.684v-32.491
					h-34.684V136.782z"/>
			</g>
			<path style="fill:#E4D2BC;" d="M128.12,101.969v37.079h39.533v-37.079H128.12z M163.864,135.199h-31.698v-29.731h31.698V135.199z
				"/>
		</g>
	</g>
	<g>
		<g>
			<polygon style="fill:#9A3C32;" points="127.494,56.278 127.494,59.639 127.494,61.683 130.575,61.683 130.575,67.358 
				130.575,67.358 130.575,90.871 129.332,90.871 129.332,92.974 129.332,95.195 168.79,95.195 168.79,92.974 168.79,90.871 
				167.547,90.871 167.547,61.683 170.628,61.683 170.628,59.639 170.628,56.278 			"/>
			<path style="fill:#813027;" d="M168.79,95.358h-39.458c-0.09,0-0.163-0.073-0.163-0.163v-4.324c0-0.09,0.073-0.163,0.163-0.163
				h1.08V61.846h-2.918c-0.09,0-0.163-0.073-0.163-0.163v-5.405c0-0.09,0.073-0.163,0.163-0.163h43.133
				c0.09,0,0.163,0.073,0.163,0.163v5.405c0,0.09-0.073,0.163-0.163,0.163h-2.918v28.862h1.08c0.09,0,0.163,0.073,0.163,0.163v4.324
				C168.953,95.285,168.88,95.358,168.79,95.358z M129.495,95.032h39.132v-3.998h-1.08c-0.09,0-0.163-0.073-0.163-0.163V61.683
				c0-0.09,0.073-0.163,0.163-0.163h2.918v-5.079h-42.807v5.079h2.918c0.09,0,0.163,0.073,0.163,0.163v29.188
				c0,0.09-0.073,0.163-0.163,0.163h-1.08V95.032z"/>
		</g>
		<g>
			<g>
				<rect x="129.35" y="60.242" style="fill:#E4D2BC;" width="36.971" height="30.485"/>
				<path style="fill:#B38C60;" d="M166.321,91.052H129.35c-0.18,0-0.326-0.146-0.326-0.326V60.242c0-0.18,0.146-0.326,0.326-0.326
					h36.971c0.18,0,0.326,0.146,0.326,0.326v30.485C166.647,90.907,166.501,91.052,166.321,91.052z M129.676,90.401h36.32V60.567
					h-36.32V90.401z"/>
			</g>
			<g>
				<rect x="134.478" y="62.397" style="fill:#37332D;" width="26.715" height="25.739"/>
				<path style="fill:#B38C60;" d="M161.194,88.462h-26.715c-0.18,0-0.326-0.146-0.326-0.326V62.397c0-0.18,0.146-0.326,0.326-0.326
					h26.715c0.18,0,0.326,0.146,0.326,0.326v25.739C161.519,88.316,161.374,88.462,161.194,88.462z M134.804,87.81h26.064V62.723
					h-26.064V87.81z"/>
			</g>
			<rect x="137.307" y="64.546" style="fill:#565048;" width="22.914" height="22.077"/>
			<path style="fill:#565048;" d="M143.039,72.562c2.105-1.64,4.236-3.249,6.373-4.846c1.423-1.063,2.853-2.118,4.285-3.17h-0.595
				c-2.069,1.46-4.14,2.917-6.205,4.383c-2.816,1.999-5.626,4.008-8.38,6.09c-0.405,0.306-0.808,0.617-1.211,0.925v1.232
				C139.212,75.631,141.104,74.07,143.039,72.562z"/>
			<path style="fill:#565048;" d="M158.395,79.729c0.609-0.476,1.217-0.952,1.825-1.428v-4.121
				c-1.424,1.025-2.846,2.053-4.261,3.092c-3.301,2.426-6.573,4.892-9.807,7.407c-0.828,0.644-1.654,1.292-2.478,1.942h5.957
				C152.536,84.303,155.466,82.017,158.395,79.729z"/>
			<g>
				<path style="fill:#E4D2BC;" d="M129.35,60.242v30.485h36.971V60.242H129.35z M161.624,74.241h-11.835V62.397h11.835V74.241z
					 M147.089,62.397v11.844h-12.18V62.397H147.089z M134.908,76.331h12.18v11.805h-12.18V76.331z M149.789,88.136V76.331h11.835
					v11.805H149.789z"/>
				<path style="fill:#B38C60;" d="M166.321,91.052H129.35c-0.18,0-0.326-0.146-0.326-0.326V60.242c0-0.18,0.146-0.326,0.326-0.326
					h36.971c0.18,0,0.326,0.146,0.326,0.326v30.485C166.647,90.907,166.501,91.052,166.321,91.052z M129.676,90.401h36.32V60.567
					h-36.32V90.401z M161.624,88.462h-11.835c-0.18,0-0.326-0.146-0.326-0.326V76.331c0-0.18,0.146-0.326,0.326-0.326h11.835
					c0.18,0,0.326,0.146,0.326,0.326v11.805C161.949,88.316,161.803,88.462,161.624,88.462z M150.115,87.81h11.183V76.657h-11.183
					V87.81z M147.089,88.462h-12.181c-0.18,0-0.326-0.146-0.326-0.326V76.331c0-0.18,0.146-0.326,0.326-0.326h12.181
					c0.18,0,0.326,0.146,0.326,0.326v11.805C147.415,88.316,147.269,88.462,147.089,88.462z M135.234,87.81h11.529V76.657h-11.529
					V87.81z M161.624,74.567h-11.835c-0.18,0-0.326-0.146-0.326-0.326V62.397c0-0.18,0.146-0.326,0.326-0.326h11.835
					c0.18,0,0.326,0.146,0.326,0.326v11.844C161.949,74.421,161.803,74.567,161.624,74.567z M150.115,73.915h11.183V62.723h-11.183
					V73.915z M147.089,74.567h-12.181c-0.18,0-0.326-0.146-0.326-0.326V62.397c0-0.18,0.146-0.326,0.326-0.326h12.181
					c0.18,0,0.326,0.146,0.326,0.326v11.844C147.415,74.421,147.269,74.567,147.089,74.567z M135.234,73.915h11.529V62.723h-11.529
					V73.915z"/>
			</g>
			<polygon style="fill:#E4D2BC;" points="134.908,66.132 134.908,62.397 147.089,62.397 147.089,66.132 149.789,66.132 
				149.789,62.397 161.624,62.397 161.624,66.132 166.322,66.132 166.322,60.242 129.35,60.242 129.35,66.132 			"/>
			<g>
				<rect x="126.269" y="55.053" style="fill:#E4D2BC;" width="43.133" height="5.405"/>
				<path style="fill:#B38C60;" d="M169.402,60.784h-43.133c-0.18,0-0.326-0.146-0.326-0.326v-5.405c0-0.18,0.146-0.326,0.326-0.326
					h43.133c0.18,0,0.326,0.146,0.326,0.326v5.405C169.728,60.638,169.582,60.784,169.402,60.784z M126.595,60.132h42.482v-4.753
					h-42.482V60.132z"/>
			</g>
			<rect x="126.269" y="58.414" style="fill:#E4D2BC;" width="43.133" height="2.044"/>
			<g>
				<rect x="128.107" y="89.646" style="fill:#E4D2BC;" width="39.458" height="4.324"/>
				<path style="fill:#B38C60;" d="M167.565,94.296h-39.458c-0.18,0-0.326-0.146-0.326-0.326v-4.324c0-0.18,0.146-0.326,0.326-0.326
					h39.458c0.18,0,0.326,0.146,0.326,0.326v4.324C167.891,94.15,167.745,94.296,167.565,94.296z M128.433,93.644h38.806v-3.673
					h-38.806V93.644z"/>
			</g>
			<rect x="128.107" y="91.749" style="fill:#E4D2BC;" width="39.458" height="2.221"/>
		</g>
	</g>
	<g>
		<rect x="100.783" y="149.317" style="opacity:0.45;fill:#9A3C32;" width="95.7" height="88.43"/>
		<g>
			<rect x="102.552" y="151.697" style="fill:#E4D2BC;" width="91.606" height="86.05"/>
			<path style="fill:#B38C60;" d="M194.158,238.073h-91.606c-0.18,0-0.326-0.146-0.326-0.326v-86.05c0-0.18,0.146-0.326,0.326-0.326
				h91.606c0.18,0,0.326,0.146,0.326,0.326v86.05C194.484,237.927,194.338,238.073,194.158,238.073z M102.878,237.421h90.954
				v-85.399h-90.954V237.421z"/>
		</g>
		<rect x="106.257" y="153.292" style="fill:#E4D2BC;" width="84.41" height="84.455"/>
		<linearGradient id="SVGID_1_" gradientUnits="userSpaceOnUse" x1="148.3553" y1="231.5852" x2="148.3553" y2="175.7888">
			<stop  offset="0.2096" style="stop-color:#485B51"/>
			<stop  offset="1" style="stop-color:#000021"/>
		</linearGradient>
		<rect x="107.408" y="155.604" style="fill:url(#SVGID_1_);" width="81.894" height="82.143"/>
	</g>
	<g>
		<g>
			<g>
				<rect x="102.105" y="151.857" style="fill:#E4D2BC;" width="45.772" height="85.891"/>
				<path style="fill:#B38C60;" d="M147.878,238.073h-45.772c-0.18,0-0.326-0.146-0.326-0.326v-85.891
					c0-0.18,0.146-0.326,0.326-0.326h45.772c0.18,0,0.326,0.146,0.326,0.326v85.891
					C148.203,237.927,148.057,238.073,147.878,238.073z M102.431,237.421h45.121v-85.239h-45.121V237.421z"/>
			</g>
			<g>
				<rect x="106.979" y="156.667" style="fill:#A44137;" width="36.936" height="77.423"/>
				<path style="fill:#813027;" d="M143.915,234.254h-36.935c-0.09,0-0.163-0.073-0.163-0.163v-77.423
					c0-0.09,0.073-0.163,0.163-0.163h36.935c0.09,0,0.163,0.073,0.163,0.163v77.423
					C144.078,234.181,144.005,234.254,143.915,234.254z M107.142,233.928h36.61V156.83h-36.61V233.928z"/>
			</g>
			<path style="fill:#B5483E;" d="M106.979,156.667v77.423h36.936v-77.423H106.979z M141.896,231.484h-32.429v-72.579h32.429
				V231.484z"/>
			<g>
				<rect x="110.661" y="156.667" style="fill:#B5483E;" width="0.416" height="77.423"/>
				<rect x="117.795" y="156.667" style="fill:#B5483E;" width="0.416" height="77.423"/>
				<rect x="124.93" y="156.667" style="fill:#B5483E;" width="0.416" height="77.423"/>
				<rect x="132.065" y="156.667" style="fill:#B5483E;" width="0.416" height="77.423"/>
				<rect x="139.2" y="156.667" style="fill:#B5483E;" width="0.416" height="77.423"/>
			</g>
			<path style="fill:#B5483E;" d="M133.359,192.176c0.22-0.589,0.443-1.176,0.671-1.761c0.905-2.326,1.926-4.593,2.914-6.882
				c0.904-2.096,1.82-4.187,2.79-6.254c1.269-2.706,2.632-5.382,4.181-7.942v-12.669h-3.106c-1.318,1.995-2.659,3.975-4.004,5.953
				c-1.521,2.238-3.043,4.476-4.524,6.74c-0.675,1.032-1.329,2.074-1.937,3.148c-0.613,1.085-1.196,2.186-1.781,3.286
				c-1.135,2.134-2.271,4.285-3.681,6.253c-0.07,0.098-0.213,0.111-0.281,0c-1.251-2.046-2.304-4.206-3.321-6.375
				c-0.898-1.915-1.766-3.845-2.733-5.727c-0.974-1.895-2.013-3.755-3.036-5.623c-1.369-2.501-2.729-5.031-3.86-7.656h-4.671v13.814
				c2.06,3.921,4.355,7.715,6.424,11.631c1.155,2.185,2.278,4.387,3.43,6.573c0.58,1.1,1.172,2.193,1.795,3.269
				c0.27,0.466,0.538,0.932,0.796,1.404c0.154,0.281,0.314,0.572,0.403,0.882c0.165,0.577-0.067,1.11-0.333,1.617
				c-0.552,1.053-1.14,2.09-1.705,3.137c-1.19,2.203-2.401,4.394-3.621,6.581c-2.392,4.289-4.817,8.559-7.19,12.859v15.656h36.936
				v-16.524c-0.66-1.069-1.321-2.137-1.974-3.21c-1.248-2.05-9.826-17.145-9.901-18.138c-0.071-0.94,0.318-1.833,0.704-2.668
				C132.956,193.094,133.183,192.648,133.359,192.176z M132.904,230.504c0.008,0.095-0.081,0.155-0.163,0.163
				c-1.434,0.147-2.874,0.204-4.315,0.224c-2.488,0.035-4.977-0.061-7.463,0.046c-2.313,0.1-4.667,0.302-6.967-0.06
				c-0.085-0.013-0.138-0.123-0.114-0.201c0.488-1.564,1.153-3.064,1.862-4.539c0.622-1.295,1.28-2.572,1.883-3.876
				c0.643-1.39,1.275-2.784,1.921-4.172c1.285-2.761,4.068-8.727,4.058-8.991c-0.006-0.156,0.233-0.229,0.303-0.082
				c0.762,1.586,1.435,3.211,2.114,4.834c0.303,0.724,0.608,1.448,0.924,2.167c0.311,0.709,0.662,1.402,0.959,2.117
				c0.6,1.444,1.19,2.891,1.791,4.335c0.592,1.421,1.166,2.86,1.82,4.253C132.083,227.93,132.795,229.149,132.904,230.504z"/>
			<g>
				<g>
					<path style="fill:#E4D2BC;" d="M141.821,154.58l-36.899,78.123v3.171h4.036l36.611-76.825v-4.18
						C145.569,154.868,141.965,154.436,141.821,154.58z"/>
					<path style="fill:#B38C60;" d="M108.958,236.199h-4.036c-0.18,0-0.326-0.146-0.326-0.326v-3.171
						c0-0.048,0.011-0.096,0.031-0.139l36.899-78.123c0.016-0.034,0.038-0.065,0.064-0.091c0.126-0.126,0.256-0.256,4.017,0.195
						c0.164,0.02,0.287,0.159,0.287,0.324v4.18c0,0.048-0.011,0.096-0.032,0.14l-36.611,76.825
						C109.198,236.127,109.084,236.199,108.958,236.199z M105.248,235.547h3.504l36.491-76.573v-3.817
						c-1.341-0.156-2.759-0.283-3.201-0.283l-36.794,77.901V235.547z"/>
				</g>
				<path style="fill:#E4D2BC;" d="M108.626,230.697c-0.071-0.011-0.117-0.092-0.12-0.157c-0.033-0.757-0.057-1.515-0.073-2.273
					c-0.021-0.991-0.022-1.982-0.012-2.974l-3.5,7.409v3.171h4.036l2.368-4.97C110.421,230.903,109.516,230.832,108.626,230.697z"/>
				<path style="fill:#E4D2BC;" d="M141.821,154.58l-2.723,5.765c1.049-0.071,2.094-0.172,3.112-0.445
					c0.095-0.025,0.215,0.049,0.206,0.157c-0.095,1.155-0.134,2.314-0.133,3.474c0,0.769,0.022,1.537,0.051,2.305l3.235-6.788v-4.18
					C145.569,154.868,141.965,154.436,141.821,154.58z"/>
				<path style="fill:#E4D2BC;" d="M126.448,187.128l-4.813,10.19c0.082,0.14,0.162,0.281,0.246,0.421
					c0.961,1.612,1.972,3.193,2.971,4.783l4.501-9.445C128.413,191.08,127.46,189.089,126.448,187.128z"/>
				<g>
					<path style="fill:#E4D2BC;" d="M108.67,154.58l36.899,78.123v3.171h-4.036l-36.611-76.825v-4.18
						C104.922,154.868,108.525,154.436,108.67,154.58z"/>
					<path style="fill:#B38C60;" d="M145.569,236.199h-4.036c-0.126,0-0.24-0.072-0.294-0.186l-36.611-76.825
						c-0.021-0.044-0.032-0.092-0.032-0.14v-4.18c0-0.165,0.123-0.304,0.287-0.324c3.761-0.451,3.891-0.321,4.017-0.195
						c0.026,0.026,0.048,0.057,0.064,0.091l36.899,78.123c0.021,0.044,0.031,0.091,0.031,0.139v3.171
						C145.895,236.053,145.749,236.199,145.569,236.199z M141.739,235.547h3.504v-2.772l-36.795-77.901
						c-0.448-0.001-1.86,0.127-3.201,0.283v3.817L141.739,235.547z M108.563,154.882h0.003H108.563z"/>
				</g>
				<path style="fill:#E4D2BC;" d="M108.507,160.633c-0.002-0.065,0.052-0.147,0.12-0.157c0.908-0.137,1.83-0.18,2.752-0.163
					l-2.708-5.734c-0.144-0.144-3.748,0.288-3.748,0.288v4.18l3.715,7.795C108.621,164.773,108.586,162.702,108.507,160.633z"/>
				<path style="fill:#E4D2BC;" d="M140.824,222.657c-0.049,1.311,0.026,2.629,0.117,3.935c0.029,0.422,0.054,0.837,0.119,1.255
					c0.075,0.481,0.161,0.96,0.239,1.44c0.08,0.493,0.157,0.989,0.201,1.487c0.031,0.35,0.07,0.739-0.024,1.083
					c-0.098,0.358-0.501,0.503-0.829,0.589c-0.227,0.059-0.46,0.09-0.695,0.107l1.582,3.32h4.036v-3.171L140.824,222.657z"/>
				<g>
					<path style="fill:#E4D2BC;" d="M102.105,151.857v85.891h45.772v-85.891H102.105z M143.915,234.091h-36.936v-77.423h36.936
						V234.091z"/>
					<path style="fill:#B38C60;" d="M147.878,238.073h-45.772c-0.18,0-0.326-0.146-0.326-0.326v-85.891
						c0-0.18,0.146-0.326,0.326-0.326h45.772c0.18,0,0.326,0.146,0.326,0.326v85.891
						C148.203,237.927,148.057,238.073,147.878,238.073z M102.431,237.421h45.121v-85.239h-45.121V237.421z M143.915,234.417
						h-36.935c-0.18,0-0.326-0.146-0.326-0.326v-77.423c0-0.18,0.146-0.326,0.326-0.326h36.935c0.18,0,0.326,0.146,0.326,0.326
						v77.423C144.241,234.271,144.095,234.417,143.915,234.417z M107.305,233.765h36.284v-76.772h-36.284V233.765z"/>
				</g>
				<path style="fill:#E4D2BC;" d="M147.566,226.473c-0.607-11.57-1.437-23.128-1.979-34.702
					c-0.271-5.787-0.553-11.574-0.935-17.354c-0.191-2.894-0.407-5.787-0.658-8.677c-0.024-0.281-0.054-0.562-0.079-0.842v69.193
					h-36.936v-74.595c-0.12,1.136-0.239,2.272-0.361,3.408c-0.303,2.827-0.601,5.652-0.835,8.486
					c-0.476,5.758-0.797,11.527-1.091,17.296c-0.291,5.707-0.592,11.414-0.857,17.123c-0.133,2.866-0.257,5.732-0.366,8.599
					c-0.055,1.439-0.118,2.877-0.111,4.317c0.007,1.43,0.026,2.86,0.031,4.29c0.011,2.837-0.031,5.679-0.274,8.507
					c-0.178,2.071-0.484,4.148-0.468,6.227h45.23v-4.718C147.783,230.844,147.68,228.658,147.566,226.473z"/>
			</g>
		</g>
		<g>
			<g>
				<rect x="147.941" y="151.857" style="fill:#E4D2BC;" width="45.772" height="85.891"/>
				<path style="fill:#B38C60;" d="M193.713,238.073h-45.772c-0.18,0-0.326-0.146-0.326-0.326v-85.891
					c0-0.18,0.146-0.326,0.326-0.326h45.772c0.18,0,0.326,0.146,0.326,0.326v85.891
					C194.039,237.927,193.893,238.073,193.713,238.073z M148.267,237.421h45.121v-85.239h-45.121V237.421z"/>
			</g>
			<g>
				<rect x="152.815" y="156.667" style="fill:#A44137;" width="36.936" height="77.423"/>
				<path style="fill:#813027;" d="M189.751,234.254h-36.936c-0.09,0-0.163-0.073-0.163-0.163v-77.423
					c0-0.09,0.073-0.163,0.163-0.163h36.936c0.09,0,0.163,0.073,0.163,0.163v77.423
					C189.914,234.181,189.841,234.254,189.751,234.254z M152.978,233.928h36.61V156.83h-36.61V233.928z"/>
			</g>
			<path style="fill:#B5483E;" d="M152.815,156.667v77.423h36.936v-77.423H152.815z M187.732,231.484h-32.429v-72.579h32.429
				V231.484z"/>
			<g>
				<rect x="156.496" y="156.667" style="fill:#B5483E;" width="0.416" height="77.423"/>
				<rect x="163.631" y="156.667" style="fill:#B5483E;" width="0.416" height="77.423"/>
				<rect x="170.766" y="156.667" style="fill:#B5483E;" width="0.416" height="77.423"/>
				<rect x="177.901" y="156.667" style="fill:#B5483E;" width="0.416" height="77.423"/>
				<rect x="185.036" y="156.667" style="fill:#B5483E;" width="0.416" height="77.423"/>
			</g>
			<path style="fill:#B5483E;" d="M179.195,192.176c0.22-0.589,0.443-1.176,0.671-1.761c0.905-2.326,1.926-4.593,2.914-6.882
				c0.904-2.096,1.82-4.187,2.79-6.254c1.269-2.706,2.632-5.382,4.181-7.942v-12.669h-3.106c-1.318,1.995-2.659,3.975-4.004,5.953
				c-1.521,2.238-3.043,4.476-4.524,6.74c-0.675,1.032-1.329,2.074-1.937,3.148c-0.613,1.085-1.196,2.186-1.781,3.286
				c-1.135,2.134-2.271,4.285-3.681,6.253c-0.071,0.098-0.213,0.111-0.281,0c-1.251-2.046-2.303-4.206-3.321-6.375
				c-0.899-1.915-1.766-3.845-2.733-5.727c-0.974-1.895-2.013-3.755-3.036-5.623c-1.37-2.501-2.729-5.031-3.86-7.656h-4.671v13.814
				c2.06,3.921,4.355,7.715,6.424,11.631c1.155,2.185,2.278,4.387,3.43,6.573c0.58,1.1,1.172,2.193,1.795,3.269
				c0.27,0.466,0.538,0.932,0.796,1.404c0.154,0.281,0.314,0.572,0.403,0.882c0.165,0.577-0.067,1.11-0.333,1.617
				c-0.552,1.053-1.14,2.09-1.705,3.137c-1.191,2.203-2.401,4.394-3.621,6.581c-2.392,4.289-4.817,8.559-7.19,12.859v15.656h36.936
				v-16.524c-0.66-1.069-1.321-2.137-1.974-3.21c-1.248-2.05-9.826-17.145-9.901-18.138c-0.071-0.94,0.318-1.833,0.704-2.668
				C178.792,193.094,179.018,192.648,179.195,192.176z M178.739,230.504c0.008,0.095-0.081,0.155-0.163,0.163
				c-1.434,0.147-2.874,0.204-4.314,0.224c-2.488,0.035-4.977-0.061-7.463,0.046c-2.313,0.1-4.667,0.302-6.967-0.06
				c-0.085-0.013-0.138-0.123-0.114-0.201c0.488-1.564,1.153-3.064,1.862-4.539c0.622-1.295,1.28-2.572,1.883-3.876
				c0.643-1.39,1.275-2.784,1.921-4.172c1.285-2.761,4.068-8.727,4.057-8.991c-0.006-0.156,0.233-0.229,0.304-0.082
				c0.762,1.586,1.435,3.211,2.114,4.834c0.303,0.724,0.608,1.448,0.924,2.167c0.311,0.709,0.662,1.402,0.96,2.117
				c0.6,1.444,1.19,2.891,1.791,4.335c0.592,1.421,1.166,2.86,1.82,4.253C177.919,227.93,178.631,229.149,178.739,230.504z"/>
			<g>
				<g>
					<path style="fill:#E4D2BC;" d="M187.657,154.58l-36.899,78.123v3.171h4.036l36.611-76.825v-4.18
						C191.405,154.868,187.801,154.436,187.657,154.58z"/>
					<path style="fill:#B38C60;" d="M154.794,236.199h-4.036c-0.18,0-0.326-0.146-0.326-0.326v-3.171
						c0-0.048,0.011-0.096,0.031-0.139l36.899-78.123c0.016-0.034,0.038-0.065,0.064-0.091c0.126-0.126,0.256-0.256,4.017,0.195
						c0.164,0.02,0.287,0.159,0.287,0.324v4.18c0,0.048-0.011,0.096-0.032,0.14l-36.611,76.825
						C155.034,236.127,154.919,236.199,154.794,236.199z M151.084,235.547h3.504l36.491-76.573v-3.817
						c-1.341-0.156-2.758-0.283-3.201-0.283l-36.794,77.901V235.547z"/>
				</g>
				<path style="fill:#E4D2BC;" d="M154.462,230.697c-0.072-0.011-0.117-0.092-0.12-0.157c-0.033-0.757-0.057-1.515-0.073-2.273
					c-0.021-0.991-0.022-1.982-0.012-2.974l-3.499,7.409v3.171h4.036l2.368-4.97C156.257,230.903,155.352,230.832,154.462,230.697z"
					/>
				<path style="fill:#E4D2BC;" d="M187.657,154.58l-2.723,5.765c1.049-0.071,2.094-0.172,3.112-0.445
					c0.095-0.025,0.215,0.049,0.206,0.157c-0.095,1.155-0.134,2.314-0.133,3.474c0,0.769,0.021,1.537,0.051,2.305l3.235-6.788v-4.18
					C191.405,154.868,187.801,154.436,187.657,154.58z"/>
				<path style="fill:#E4D2BC;" d="M172.283,187.128l-4.813,10.19c0.082,0.14,0.162,0.281,0.246,0.421
					c0.961,1.612,1.972,3.193,2.971,4.783l4.501-9.445C174.249,191.08,173.296,189.089,172.283,187.128z"/>
				<g>
					<path style="fill:#E4D2BC;" d="M154.505,154.58l36.899,78.123v3.171h-4.036l-36.611-76.825v-4.18
						C150.758,154.868,154.361,154.436,154.505,154.58z"/>
					<path style="fill:#B38C60;" d="M191.405,236.199h-4.036c-0.126,0-0.24-0.072-0.294-0.186l-36.611-76.825
						c-0.021-0.044-0.032-0.092-0.032-0.14v-4.18c0-0.165,0.123-0.304,0.287-0.324c3.761-0.451,3.891-0.321,4.017-0.195
						c0.027,0.026,0.048,0.057,0.064,0.091l36.899,78.123c0.021,0.044,0.031,0.091,0.031,0.139v3.171
						C191.73,236.053,191.585,236.199,191.405,236.199z M187.574,235.547h3.504v-2.772l-36.794-77.901
						c-0.452-0.001-1.86,0.127-3.201,0.283v3.817L187.574,235.547z M154.398,154.882h0.003H154.398z"/>
				</g>
				<path style="fill:#E4D2BC;" d="M154.342,160.633c-0.003-0.065,0.052-0.147,0.12-0.157c0.908-0.137,1.83-0.18,2.751-0.163
					l-2.708-5.734c-0.144-0.144-3.747,0.288-3.747,0.288v4.18l3.715,7.795C154.456,164.773,154.421,162.702,154.342,160.633z"/>
				<path style="fill:#E4D2BC;" d="M186.66,222.657c-0.049,1.311,0.026,2.629,0.116,3.935c0.029,0.422,0.054,0.837,0.119,1.255
					c0.074,0.481,0.161,0.96,0.239,1.44c0.08,0.493,0.157,0.989,0.201,1.487c0.031,0.35,0.07,0.739-0.024,1.083
					c-0.098,0.358-0.501,0.503-0.829,0.589c-0.227,0.059-0.46,0.09-0.696,0.107l1.582,3.32h4.036v-3.171L186.66,222.657z"/>
				<g>
					<path style="fill:#E4D2BC;" d="M147.941,151.857v85.891h45.772v-85.891H147.941z M189.751,234.091h-36.936v-77.423h36.936
						V234.091z"/>
					<path style="fill:#B38C60;" d="M193.713,238.073h-45.772c-0.18,0-0.326-0.146-0.326-0.326v-85.891
						c0-0.18,0.146-0.326,0.326-0.326h45.772c0.18,0,0.326,0.146,0.326,0.326v85.891
						C194.039,237.927,193.893,238.073,193.713,238.073z M148.267,237.421h45.121v-85.239h-45.121V237.421z M189.751,234.417
						h-36.936c-0.18,0-0.326-0.146-0.326-0.326v-77.423c0-0.18,0.146-0.326,0.326-0.326h36.936c0.18,0,0.326,0.146,0.326,0.326
						v77.423C190.077,234.271,189.931,234.417,189.751,234.417z M153.141,233.765h36.284v-76.772h-36.284V233.765z"/>
				</g>
				<path style="fill:#E4D2BC;" d="M193.402,226.473c-0.608-11.57-1.437-23.128-1.979-34.702
					c-0.271-5.787-0.553-11.574-0.935-17.354c-0.191-2.894-0.407-5.787-0.658-8.677c-0.024-0.281-0.054-0.562-0.079-0.842v69.193
					h-36.936v-74.595c-0.12,1.136-0.239,2.272-0.361,3.408c-0.303,2.827-0.601,5.652-0.835,8.486
					c-0.476,5.758-0.797,11.527-1.091,17.296c-0.291,5.707-0.592,11.414-0.857,17.123c-0.133,2.866-0.257,5.732-0.366,8.599
					c-0.055,1.439-0.118,2.877-0.111,4.317c0.007,1.43,0.025,2.86,0.031,4.29c0.011,2.837-0.031,5.679-0.274,8.507
					c-0.178,2.071-0.483,4.148-0.468,6.227h45.23v-4.718C193.618,230.844,193.516,228.658,193.402,226.473z"/>
			</g>
		</g>
	</g>
	<g>
		<g>
			<g>
				<polygon style="fill:#9A3C32;" points="60.178,174.335 60.178,177.127 60.178,178.824 62.736,178.824 62.736,183.538 
					62.736,183.538 62.736,203.067 61.704,203.067 61.704,204.814 61.704,206.659 94.477,206.659 94.477,204.814 94.477,203.067 
					93.444,203.067 93.444,178.824 96.003,178.824 96.003,177.127 96.003,174.335 				"/>
				<path style="fill:#813027;" d="M94.476,206.822H61.704c-0.09,0-0.163-0.073-0.163-0.163v-3.591c0-0.09,0.073-0.163,0.163-0.163
					h0.87v-23.917h-2.396c-0.09,0-0.163-0.073-0.163-0.163v-4.489c0-0.09,0.073-0.163,0.163-0.163h35.826
					c0.09,0,0.163,0.073,0.163,0.163v4.489c0,0.09-0.073,0.163-0.163,0.163h-2.396v23.917h0.87c0.09,0,0.163,0.073,0.163,0.163
					v3.591C94.639,206.749,94.566,206.822,94.476,206.822z M61.867,206.496h32.447v-3.266h-0.87c-0.09,0-0.163-0.073-0.163-0.163
					v-24.243c0-0.09,0.073-0.163,0.163-0.163h2.396v-4.164h-35.5v4.164h2.396c0.09,0,0.163,0.073,0.163,0.163v24.243
					c0,0.09-0.073,0.163-0.163,0.163h-0.87V206.496z"/>
			</g>
			<g>
				<g>
					<rect x="61.719" y="177.627" style="fill:#E4D2BC;" width="30.708" height="25.32"/>
					<path style="fill:#B38C60;" d="M92.426,203.273H61.719c-0.18,0-0.326-0.146-0.326-0.326v-25.32c0-0.18,0.146-0.326,0.326-0.326
						h30.708c0.18,0,0.326,0.146,0.326,0.326v25.32C92.752,203.127,92.606,203.273,92.426,203.273z M62.045,202.622h30.056v-24.669
						H62.045V202.622z"/>
				</g>
				<g>
					<rect x="65.978" y="179.417" style="fill:#37332D;" width="22.189" height="21.378"/>
					<path style="fill:#B38C60;" d="M88.167,201.122H65.978c-0.18,0-0.326-0.146-0.326-0.326v-21.378
						c0-0.18,0.146-0.326,0.326-0.326h22.189c0.18,0,0.326,0.146,0.326,0.326v21.378C88.493,200.976,88.347,201.122,88.167,201.122z
						 M66.304,200.47h21.538v-20.727H66.304V200.47z"/>
				</g>
				<rect x="68.327" y="181.202" style="fill:#565048;" width="19.032" height="18.336"/>
				<path style="fill:#565048;" d="M73.088,187.861c1.748-1.362,3.518-2.699,5.293-4.025c1.182-0.883,2.37-1.759,3.559-2.633h-0.494
					c-1.719,1.212-3.439,2.423-5.153,3.64c-2.339,1.66-4.673,3.329-6.961,5.059c-0.337,0.254-0.671,0.512-1.006,0.769v1.023
					C69.91,190.41,71.481,189.113,73.088,187.861z"/>
				<path style="fill:#565048;" d="M85.843,193.814c0.506-0.395,1.011-0.79,1.516-1.186v-3.423
					c-1.183,0.851-2.364,1.705-3.539,2.568c-2.742,2.015-5.46,4.064-8.146,6.152c-0.688,0.535-1.374,1.073-2.058,1.613h4.947
					C80.976,197.612,83.41,195.713,85.843,193.814z"/>
				<g>
					<path style="fill:#E4D2BC;" d="M61.719,177.627v25.32h30.708v-25.32H61.719z M88.524,189.255h-9.83v-9.837h9.83V189.255z
						 M76.452,179.417v9.837H66.335v-9.837H76.452z M66.335,190.991h10.117v9.805H66.335V190.991z M78.695,200.796v-9.805h9.83
						v9.805H78.695z"/>
					<path style="fill:#B38C60;" d="M92.426,203.273H61.719c-0.18,0-0.326-0.146-0.326-0.326v-25.32c0-0.18,0.146-0.326,0.326-0.326
						h30.708c0.18,0,0.326,0.146,0.326,0.326v25.32C92.752,203.127,92.606,203.273,92.426,203.273z M62.045,202.622h30.056v-24.669
						H62.045V202.622z M88.524,201.122h-9.83c-0.18,0-0.326-0.146-0.326-0.326v-9.805c0-0.18,0.146-0.326,0.326-0.326h9.83
						c0.18,0,0.326,0.146,0.326,0.326v9.805C88.85,200.976,88.704,201.122,88.524,201.122z M79.02,200.47h9.178v-9.153H79.02V200.47
						z M76.452,201.122H66.335c-0.18,0-0.326-0.146-0.326-0.326v-9.805c0-0.18,0.146-0.326,0.326-0.326h10.117
						c0.18,0,0.326,0.146,0.326,0.326v9.805C76.778,200.976,76.632,201.122,76.452,201.122z M66.661,200.47h9.465v-9.153h-9.465
						V200.47z M88.524,189.581h-9.83c-0.18,0-0.326-0.146-0.326-0.326v-9.837c0-0.18,0.146-0.326,0.326-0.326h9.83
						c0.18,0,0.326,0.146,0.326,0.326v9.837C88.85,189.435,88.704,189.581,88.524,189.581z M79.02,188.929h9.178v-9.186H79.02
						V188.929z M76.452,189.581H66.335c-0.18,0-0.326-0.146-0.326-0.326v-9.837c0-0.18,0.146-0.326,0.326-0.326h10.117
						c0.18,0,0.326,0.146,0.326,0.326v9.837C76.778,189.435,76.632,189.581,76.452,189.581z M66.661,188.929h9.465v-9.186h-9.465
						V188.929z"/>
				</g>
				<polygon style="fill:#E4D2BC;" points="66.335,182.52 66.335,179.417 76.452,179.417 76.452,182.52 78.695,182.52 
					78.695,179.417 88.524,179.417 88.524,182.52 92.426,182.52 92.426,177.627 61.719,177.627 61.719,182.52 				"/>
				<g>
					<rect x="59.16" y="173.318" style="fill:#E4D2BC;" width="35.825" height="4.489"/>
					<path style="fill:#B38C60;" d="M94.985,178.133H59.16c-0.18,0-0.326-0.146-0.326-0.326v-4.49c0-0.18,0.146-0.326,0.326-0.326
						h35.825c0.18,0,0.326,0.146,0.326,0.326v4.49C95.311,177.987,95.165,178.133,94.985,178.133z M59.486,177.481h35.174v-3.838
						H59.486V177.481z"/>
				</g>
				<rect x="59.16" y="176.109" style="fill:#E4D2BC;" width="35.825" height="1.697"/>
				<g>
					<rect x="60.686" y="202.05" style="fill:#E4D2BC;" width="32.772" height="3.592"/>
					<path style="fill:#B38C60;" d="M93.459,205.967H60.686c-0.18,0-0.326-0.146-0.326-0.326v-3.591c0-0.18,0.146-0.326,0.326-0.326
						h32.773c0.18,0,0.326,0.146,0.326,0.326v3.591C93.785,205.821,93.639,205.967,93.459,205.967z M61.012,205.315h32.121v-2.94
						H61.012V205.315z"/>
				</g>
				<rect x="60.686" y="203.797" style="fill:#E4D2BC;" width="32.772" height="1.844"/>
			</g>
		</g>
		<g>
			<g>
				<polygon style="fill:#9A3C32;" points="201.577,174.335 201.577,177.127 201.577,178.824 204.135,178.824 204.135,183.538 
					204.135,183.538 204.135,203.067 203.103,203.067 203.103,204.814 203.103,206.659 235.876,206.659 235.876,204.814 
					235.876,203.067 234.843,203.067 234.843,178.824 237.402,178.824 237.402,177.127 237.402,174.335 				"/>
				<path style="fill:#813027;" d="M235.875,206.822h-32.773c-0.09,0-0.163-0.073-0.163-0.163v-3.591
					c0-0.09,0.073-0.163,0.163-0.163h0.87v-23.917h-2.396c-0.09,0-0.163-0.073-0.163-0.163v-4.489c0-0.09,0.073-0.163,0.163-0.163
					h35.825c0.09,0,0.163,0.073,0.163,0.163v4.489c0,0.09-0.073,0.163-0.163,0.163h-2.396v23.917h0.87
					c0.09,0,0.163,0.073,0.163,0.163v3.591C236.038,206.749,235.965,206.822,235.875,206.822z M203.266,206.496h32.447v-3.266h-0.87
					c-0.09,0-0.163-0.073-0.163-0.163v-24.243c0-0.09,0.073-0.163,0.163-0.163h2.396v-4.164H201.74v4.164h2.396
					c0.09,0,0.163,0.073,0.163,0.163v24.243c0,0.09-0.073,0.163-0.163,0.163h-0.87V206.496z"/>
			</g>
			<g>
				<g>
					<rect x="203.118" y="177.627" style="fill:#E4D2BC;" width="30.708" height="25.32"/>
					<path style="fill:#B38C60;" d="M233.825,203.273h-30.707c-0.18,0-0.326-0.146-0.326-0.326v-25.32
						c0-0.18,0.146-0.326,0.326-0.326h30.707c0.18,0,0.326,0.146,0.326,0.326v25.32
						C234.151,203.127,234.005,203.273,233.825,203.273z M203.444,202.622h30.056v-24.669h-30.056V202.622z"/>
				</g>
				<g>
					<rect x="207.377" y="179.417" style="fill:#37332D;" width="22.189" height="21.378"/>
					<path style="fill:#B38C60;" d="M229.566,201.122h-22.189c-0.18,0-0.326-0.146-0.326-0.326v-21.378
						c0-0.18,0.146-0.326,0.326-0.326h22.189c0.18,0,0.326,0.146,0.326,0.326v21.378
						C229.892,200.976,229.746,201.122,229.566,201.122z M207.703,200.47h21.538v-20.727h-21.538V200.47z"/>
				</g>
				<rect x="209.726" y="181.202" style="fill:#565048;" width="19.032" height="18.336"/>
				<path style="fill:#565048;" d="M214.487,187.861c1.748-1.362,3.518-2.699,5.294-4.025c1.182-0.883,2.37-1.759,3.559-2.633
					h-0.494c-1.719,1.212-3.439,2.423-5.153,3.64c-2.339,1.66-4.673,3.329-6.961,5.059c-0.337,0.254-0.671,0.512-1.006,0.769v1.023
					C211.309,190.41,212.88,189.113,214.487,187.861z"/>
				<path style="fill:#565048;" d="M227.242,193.814c0.506-0.395,1.011-0.79,1.516-1.186v-3.423
					c-1.183,0.851-2.364,1.705-3.539,2.568c-2.742,2.015-5.46,4.064-8.146,6.152c-0.688,0.535-1.374,1.073-2.058,1.613h4.947
					C222.375,197.612,224.809,195.713,227.242,193.814z"/>
				<g>
					<path style="fill:#E4D2BC;" d="M203.118,177.627v25.32h30.708v-25.32H203.118z M229.923,189.255h-9.83v-9.837h9.83V189.255z
						 M217.851,179.417v9.837h-10.117v-9.837H217.851z M207.734,190.991h10.117v9.805h-10.117V190.991z M220.094,200.796v-9.805
						h9.83v9.805H220.094z"/>
					<path style="fill:#B38C60;" d="M233.825,203.273h-30.707c-0.18,0-0.326-0.146-0.326-0.326v-25.32
						c0-0.18,0.146-0.326,0.326-0.326h30.707c0.18,0,0.326,0.146,0.326,0.326v25.32
						C234.151,203.127,234.005,203.273,233.825,203.273z M203.444,202.622h30.056v-24.669h-30.056V202.622z M229.923,201.122h-9.83
						c-0.18,0-0.326-0.146-0.326-0.326v-9.805c0-0.18,0.146-0.326,0.326-0.326h9.83c0.18,0,0.326,0.146,0.326,0.326v9.805
						C230.249,200.976,230.103,201.122,229.923,201.122z M220.419,200.47h9.178v-9.153h-9.178V200.47z M217.851,201.122h-10.117
						c-0.18,0-0.326-0.146-0.326-0.326v-9.805c0-0.18,0.146-0.326,0.326-0.326h10.117c0.18,0,0.326,0.146,0.326,0.326v9.805
						C218.177,200.976,218.031,201.122,217.851,201.122z M208.06,200.47h9.465v-9.153h-9.465V200.47z M229.923,189.581h-9.83
						c-0.18,0-0.326-0.146-0.326-0.326v-9.837c0-0.18,0.146-0.326,0.326-0.326h9.83c0.18,0,0.326,0.146,0.326,0.326v9.837
						C230.249,189.435,230.103,189.581,229.923,189.581z M220.419,188.929h9.178v-9.186h-9.178V188.929z M217.851,189.581h-10.117
						c-0.18,0-0.326-0.146-0.326-0.326v-9.837c0-0.18,0.146-0.326,0.326-0.326h10.117c0.18,0,0.326,0.146,0.326,0.326v9.837
						C218.177,189.435,218.031,189.581,217.851,189.581z M208.06,188.929h9.465v-9.186h-9.465V188.929z"/>
				</g>
				<polygon style="fill:#E4D2BC;" points="207.734,182.52 207.734,179.417 217.851,179.417 217.851,182.52 220.094,182.52 
					220.094,179.417 229.923,179.417 229.923,182.52 233.825,182.52 233.825,177.627 203.118,177.627 203.118,182.52 				"/>
				<g>
					<rect x="200.559" y="173.318" style="fill:#E4D2BC;" width="35.825" height="4.489"/>
					<path style="fill:#B38C60;" d="M236.384,178.133h-35.825c-0.18,0-0.326-0.146-0.326-0.326v-4.49
						c0-0.18,0.146-0.326,0.326-0.326h35.825c0.18,0,0.326,0.146,0.326,0.326v4.49C236.71,177.987,236.564,178.133,236.384,178.133z
						 M200.885,177.481h35.174v-3.838h-35.174V177.481z"/>
				</g>
				<rect x="200.559" y="176.109" style="fill:#E4D2BC;" width="35.825" height="1.697"/>
				<g>
					<rect x="202.085" y="202.05" style="fill:#E4D2BC;" width="32.772" height="3.592"/>
					<path style="fill:#B38C60;" d="M234.858,205.967h-32.773c-0.18,0-0.326-0.146-0.326-0.326v-3.591
						c0-0.18,0.146-0.326,0.326-0.326h32.773c0.18,0,0.326,0.146,0.326,0.326v3.591
						C235.184,205.821,235.038,205.967,234.858,205.967z M202.411,205.315h32.121v-2.94h-32.121V205.315z"/>
				</g>
				<rect x="202.085" y="203.797" style="fill:#E4D2BC;" width="32.772" height="1.844"/>
			</g>
		</g>
	</g>
</g>
</svg>
